<?xml version="1.0" encoding="utf-8"?>
<!-- Generator: Adobe Illustrator 16.0.0, SVG Export Plug-In . SVG Version: 6.00 Build 0)  -->
<!DOCTYPE svg PUBLIC "-//W3C//DTD SVG 1.1//EN" "http://www.w3.org/Graphics/SVG/1.1/DTD/svg11.dtd">
<svg version="1.1" xmlns="http://www.w3.org/2000/svg" xmlns:xlink="http://www.w3.org/1999/xlink" x="0px" y="0px" width="32px"
	 height="32px" viewBox="0 0 32 32" enable-background="new 0 0 32 32" xml:space="preserve">
<g id="Layer_1">
	<g>
		<path d="M16,0.256c-0.718,0-1.436,0.049-2.132,0.146l0.138,0.99c0.517-0.072,1.041-0.116,1.572-0.131c0,0,0,0,0,0
			c0.007,0,0.015,0,0.022,0c0,0,0,0,0.001,0c0.007,0,0.015,0,0.022,0h0c0.003,0,0.007,0,0.01,0c0,0,0.001,0,0.001,0
			c0.004,0,0.007,0,0.011,0c0,0,0,0,0.001,0c0.003,0,0.006,0,0.01,0c0,0,0.001,0,0.001,0c0.007,0,0.014,0,0.021,0
			c0,0,0.001,0,0.001,0c0.007,0,0.014,0,0.021,0c0,0,0.001,0,0.002,0c0.003,0,0.006,0,0.01,0h0c0.003,0,0.007,0,0.011,0
			c0,0,0.001,0,0.001,0c0.003,0,0.006,0,0.01,0c0,0,0,0,0.001,0c0.003,0,0.007,0,0.011,0c0,0,0,0,0.001,0c0.003,0,0.006,0,0.01,0
			c0,0,0.001,0,0.001,0c0.004,0,0.007,0,0.011,0h0c0.003,0,0.007,0,0.01,0c0.001,0,0.001,0,0.002,0c0.007,0,0.014,0,0.021,0
			c0.001,0,0.001,0,0.002,0c0.003,0,0.006,0,0.009,0c0,0,0.001,0,0.002,0c0.003,0,0.006,0,0.01,0c0.001,0,0.001,0,0.002,0
			c0.003,0,0.006,0,0.009,0c0,0,0.001,0,0.002,0c0.003,0,0.007,0,0.01,0c0,0,0.001,0,0.001,0c0.003,0,0.006,0,0.009,0
			c0.001,0,0.002,0,0.002,0c0.003,0,0.007,0,0.01,0c0,0,0,0,0.001,0c0.003,0,0.006,0,0.009,0c0.001,0,0.002,0,0.003,0
			c0.003,0,0.006,0,0.01,0l0,0c0.003,0,0.007,0,0.01,0c0.001,0,0.002,0,0.003,0c0.003,0,0.006,0,0.009,0c0,0,0.001,0,0.001,0
			c0.003,0,0.007,0,0.01,0c0,0,0.001,0,0.002,0c0.002,0,0.005,0,0.008,0c0,0,0.001,0,0.002,0c0.003,0,0.007,0,0.01,0
			c0,0,0.001,0,0.002,0c0.003,0,0.005,0,0.008,0c0.001,0,0.002,0,0.003,0c0.003,0,0.006,0,0.01,0c0,0,0.001,0,0.002,0
			c0.003,0,0.006,0,0.009,0c0,0,0.001,0,0.002,0c0.003,0,0.007,0,0.01,0V0.256L16,0.256z M11.773,0.85
			c-0.593,0.172-1.185,0.385-1.76,0.631L9.769,1.589l0.408,0.913c0.001,0,0.002-0.001,0.003-0.001s0.001,0,0.002-0.001
			c0.002-0.001,0.004-0.001,0.006-0.002c0.051-0.023,0.102-0.045,0.153-0.067c0.001,0,0.002-0.001,0.003-0.001
			c0.001,0,0.003-0.001,0.005-0.002c0.001-0.001,0.003-0.001,0.005-0.002c0.001,0,0.002-0.001,0.003-0.001
			c0.003-0.001,0.006-0.002,0.009-0.003c0.001,0,0.002-0.001,0.003-0.001c0.002-0.001,0.004-0.002,0.007-0.003
			c0,0,0.001-0.001,0.002-0.001c0.003-0.001,0.006-0.003,0.009-0.004c0,0,0,0,0.001,0c0.003-0.001,0.006-0.002,0.008-0.004
			c0.001,0,0.001,0,0.002-0.001c0.003-0.001,0.006-0.002,0.009-0.004c0.003-0.001,0.006-0.003,0.01-0.004c0,0,0,0,0.001-0.001
			c0.003-0.001,0.006-0.002,0.01-0.004c0,0,0,0,0.001,0c0.006-0.003,0.013-0.005,0.02-0.008c0,0,0.001,0,0.001,0
			c0.236-0.1,0.473-0.194,0.712-0.281l0,0c0.011-0.004,0.021-0.007,0.032-0.011l0,0c0.007-0.002,0.014-0.005,0.021-0.007
			c0,0,0,0,0.001,0c0.003-0.001,0.006-0.002,0.01-0.003c0,0,0,0,0.001,0c0.006-0.002,0.013-0.004,0.02-0.007
			c0,0,0.001,0,0.002-0.001c0.003-0.001,0.006-0.002,0.009-0.003c0,0,0.001,0,0.001,0c0.002-0.001,0.006-0.002,0.009-0.003
			c0,0,0,0,0.001,0c0.003-0.001,0.006-0.002,0.009-0.003c0,0,0.001,0,0.002-0.001c0.003-0.001,0.006-0.002,0.009-0.003
			c0.001,0,0.001,0,0.002-0.001c0.002-0.001,0.005-0.001,0.007-0.002c0.001,0,0.001,0,0.002-0.001
			c0.002-0.001,0.005-0.002,0.008-0.003c0.001,0,0.002,0,0.003-0.001c0.003-0.001,0.006-0.002,0.008-0.003
			c0.001,0,0.002,0,0.002-0.001c0.002,0,0.005-0.001,0.007-0.002c0.001,0,0.002,0,0.003-0.001c0.002-0.001,0.005-0.002,0.008-0.003
			c0.001,0,0.002,0,0.003-0.001c0.002-0.001,0.004-0.001,0.006-0.002c0.001,0,0.003-0.001,0.005-0.001s0.004-0.001,0.006-0.002
			c0.001,0,0.002-0.001,0.003-0.001c0.002-0.001,0.005-0.001,0.007-0.002c0.001,0,0.003-0.001,0.004-0.001
			c0.002,0,0.003-0.001,0.005-0.002s0.004-0.001,0.006-0.002s0.003-0.001,0.005-0.001c0.001-0.001,0.003-0.001,0.005-0.002
			s0.004-0.001,0.006-0.002c0.002-0.001,0.003-0.001,0.005-0.002c0.001,0,0.002-0.001,0.003-0.001
			c0.003-0.001,0.006-0.002,0.009-0.003c0.001,0,0.002,0,0.003-0.001c0.001,0,0.003-0.001,0.005-0.001s0.002-0.001,0.003-0.001
			c0.003-0.001,0.006-0.002,0.009-0.003c0.001,0,0.002,0,0.003-0.001c0.003-0.001,0.007-0.002,0.01-0.003c0,0,0.001,0,0.001,0
			c0.002,0,0.004-0.001,0.006-0.002c0,0,0.001,0,0.001,0c0.004-0.001,0.007-0.002,0.011-0.003c0,0,0.001,0,0.002-0.001
			c0.006-0.002,0.012-0.004,0.018-0.006c0,0,0,0,0,0c0.004-0.001,0.008-0.002,0.012-0.004c0,0,0,0,0.001,0
			c0.006-0.002,0.012-0.004,0.019-0.006l0,0c0.163-0.054,0.328-0.105,0.492-0.154c0,0,0,0,0,0c0.006-0.001,0.013-0.003,0.019-0.005
			c0,0,0.001,0,0.001,0c0.003-0.001,0.007-0.002,0.01-0.003c0,0,0.001,0,0.002,0L11.773,0.85L11.773,0.85z M7.885,2.58
			C7.274,2.956,6.688,3.374,6.145,3.823l0.637,0.771c0.052-0.043,0.104-0.085,0.156-0.127c0,0,0.001,0,0.001-0.001
			C6.944,4.461,6.95,4.457,6.956,4.452c0,0,0,0,0.001,0C6.958,4.45,6.96,4.449,6.961,4.448c0.001-0.001,0.001-0.001,0.002-0.002
			c0.005-0.004,0.01-0.008,0.015-0.012C6.979,4.433,6.98,4.432,6.981,4.432c0.001-0.001,0.003-0.002,0.004-0.003
			c0.001-0.001,0.002-0.001,0.003-0.002c0.002-0.002,0.004-0.003,0.006-0.005C6.997,4.42,6.998,4.418,7,4.417
			C7,4.417,7.002,4.416,7.003,4.415c0.001-0.001,0.002-0.002,0.004-0.003C7.008,4.411,7.009,4.41,7.01,4.409
			c0.001-0.001,0.003-0.002,0.005-0.004c0.001-0.001,0.003-0.002,0.004-0.003C7.021,4.4,7.022,4.399,7.024,4.397
			c0.001,0,0.002-0.001,0.003-0.002c0.001-0.001,0.003-0.002,0.005-0.003C7.033,4.391,7.034,4.39,7.035,4.39
			C7.037,4.388,7.04,4.386,7.042,4.384c0,0,0.001-0.001,0.002-0.001C7.046,4.381,7.048,4.379,7.05,4.378
			c0-0.001,0.001-0.001,0.002-0.002c0.002-0.001,0.004-0.003,0.006-0.005c0,0,0.001,0,0.001-0.001
			c0.002-0.002,0.005-0.004,0.008-0.006c0,0,0.001,0,0.001-0.001c0.002-0.001,0.004-0.003,0.007-0.005c0,0,0.001-0.001,0.001-0.001
			c0.005-0.004,0.01-0.008,0.016-0.012c0,0,0.001,0,0.001-0.001c0.002-0.002,0.005-0.004,0.007-0.005c0,0,0.001,0,0.001-0.001
			C7.104,4.335,7.107,4.333,7.11,4.331l0,0c0.002-0.002,0.005-0.004,0.008-0.006c0,0,0,0,0.001-0.001
			c0.41-0.318,0.84-0.615,1.29-0.891L7.885,2.58L7.885,2.58z M4.596,5.304C4.122,5.83,3.678,6.397,3.278,6.991l0.83,0.558
			C4.109,7.548,4.11,7.546,4.111,7.544c0-0.001,0.001-0.001,0.001-0.002c0.001-0.001,0.002-0.003,0.003-0.005
			c0-0.001,0.001-0.001,0.002-0.002C4.12,7.532,4.122,7.529,4.124,7.526c0-0.001,0.001-0.002,0.002-0.003
			C4.126,7.521,4.127,7.52,4.128,7.519c0-0.001,0.001-0.002,0.002-0.003c0.001-0.001,0.002-0.003,0.003-0.004
			c0.001-0.002,0.002-0.003,0.003-0.005S4.139,7.503,4.14,7.502C4.141,7.5,4.142,7.498,4.144,7.496
			c0.001-0.001,0.001-0.002,0.002-0.003C4.147,7.491,4.148,7.49,4.149,7.488c0-0.001,0.001-0.002,0.001-0.002
			C4.153,7.482,4.155,7.48,4.156,7.478c0,0,0.001-0.001,0.001-0.001C4.159,7.474,4.16,7.471,4.162,7.469
			c0-0.001,0.001-0.001,0.001-0.002C4.165,7.465,4.167,7.462,4.168,7.46c0,0,0,0,0.001-0.001c0.002-0.003,0.004-0.005,0.006-0.008
			c0,0,0,0,0,0c0.002-0.003,0.004-0.005,0.006-0.008c0,0,0,0,0-0.001c0.355-0.517,0.741-1.006,1.157-1.466L4.596,5.304L4.596,5.304z
			 M2.21,8.836C2.075,9.108,1.947,9.386,1.825,9.67c-0.16,0.372-0.306,0.754-0.435,1.134l0.947,0.32
			c0.078-0.229,0.161-0.457,0.251-0.684c0,0,0,0,0,0c0.001-0.003,0.003-0.006,0.004-0.01l0,0c0.001-0.003,0.002-0.007,0.004-0.01
			l0,0c0.003-0.007,0.005-0.014,0.008-0.02c0-0.001,0-0.001,0-0.002c0.001-0.003,0.002-0.006,0.003-0.008c0-0.001,0-0.001,0-0.002
			c0.003-0.006,0.005-0.013,0.008-0.02l0-0.001c0.001-0.003,0.002-0.006,0.003-0.008c0-0.001,0-0.002,0.001-0.003
			c0.001-0.002,0.002-0.005,0.003-0.007c0-0.001,0-0.001,0.001-0.002c0.002-0.007,0.005-0.013,0.008-0.02c0,0,0-0.001,0.001-0.002
			c0.001-0.002,0.002-0.005,0.003-0.007c0-0.001,0.001-0.002,0.001-0.003c0.001-0.002,0.002-0.005,0.003-0.007
			c0-0.001,0-0.001,0.001-0.002c0.001-0.003,0.002-0.006,0.004-0.01c0,0,0-0.001,0-0.001c0.001-0.002,0.002-0.005,0.003-0.008
			c0-0.001,0-0.002,0.001-0.003c0.001-0.002,0.002-0.004,0.003-0.006c0-0.001,0.001-0.002,0.001-0.003
			c0.001-0.002,0.002-0.005,0.003-0.007c0,0,0-0.001,0.001-0.002c0.001-0.003,0.002-0.006,0.004-0.009c0-0.001,0-0.002,0.001-0.003
			c0.001-0.002,0.002-0.004,0.003-0.007c0-0.001,0.001-0.002,0.001-0.003c0-0.002,0.001-0.004,0.002-0.006
			c0-0.001,0.001-0.003,0.001-0.004c0.001-0.002,0.002-0.005,0.003-0.007c0,0,0-0.001,0.001-0.002
			c0.001-0.003,0.002-0.006,0.004-0.009c0-0.001,0.001-0.002,0.001-0.003c0-0.002,0.001-0.004,0.002-0.006
			c0-0.001,0.001-0.002,0.001-0.003c0.001-0.002,0.002-0.004,0.002-0.006c0-0.001,0.001-0.002,0.001-0.003
			c0.001-0.003,0.003-0.006,0.004-0.009c0,0,0-0.001,0.001-0.002c0.001-0.002,0.002-0.005,0.003-0.007
			c0-0.001,0.001-0.002,0.002-0.004c0-0.002,0.001-0.004,0.002-0.006c0.001-0.001,0.001-0.002,0.002-0.004
			c0.001-0.002,0.001-0.003,0.002-0.005c0-0.001,0.001-0.002,0.001-0.004c0.001-0.003,0.002-0.006,0.004-0.009
			c0-0.001,0.001-0.001,0.001-0.002c0.001-0.002,0.002-0.004,0.003-0.007c0-0.001,0.001-0.002,0.001-0.004
			c0.001-0.002,0.002-0.004,0.002-0.005s0.001-0.003,0.002-0.004c0.001-0.002,0.001-0.004,0.002-0.006
			c0-0.001,0.001-0.002,0.001-0.003c0.001-0.003,0.002-0.006,0.004-0.009c0-0.001,0.001-0.002,0.001-0.003
			c0-0.002,0.001-0.004,0.002-0.006c0-0.001,0.001-0.002,0.001-0.003c0.001-0.002,0.002-0.004,0.003-0.006
			c0-0.001,0.001-0.002,0.001-0.003c0.001-0.003,0.002-0.006,0.004-0.009l0,0c0.001-0.004,0.003-0.008,0.005-0.012
			c0-0.001,0.001-0.002,0.001-0.003c0.001-0.003,0.002-0.006,0.004-0.009c0-0.001,0.001-0.002,0.001-0.003
			c0.001-0.003,0.002-0.006,0.004-0.009c0-0.001,0-0.001,0.001-0.002c0.001-0.004,0.003-0.007,0.005-0.011c0,0,0,0,0,0
			c0.005-0.012,0.011-0.025,0.017-0.037l0,0c0.103-0.237,0.211-0.47,0.324-0.698L2.21,8.836L2.21,8.836z M0.852,12.876
			c-0.128,0.694-0.208,1.41-0.238,2.126l0.999,0.042c0.028-0.673,0.102-1.334,0.222-1.986L0.852,12.876L0.852,12.876z M1.666,17.042
			L0.67,17.137c0.068,0.712,0.188,1.423,0.355,2.111l0.972-0.235c-0.019-0.077-0.037-0.155-0.054-0.232l0,0
			c-0.002-0.008-0.003-0.015-0.005-0.021v-0.001c-0.002-0.007-0.003-0.014-0.005-0.021c0-0.001,0-0.001,0-0.002
			c-0.001-0.003-0.002-0.006-0.002-0.01l0,0c-0.001-0.004-0.001-0.007-0.002-0.011c0,0,0,0,0-0.001
			c-0.001-0.003-0.001-0.006-0.002-0.009c0-0.001,0-0.001,0-0.002c-0.001-0.003-0.001-0.007-0.002-0.01v-0.001
			c0-0.003-0.001-0.006-0.002-0.009c0-0.001,0-0.002,0-0.003c0-0.003-0.001-0.006-0.002-0.009v-0.001
			c-0.001-0.003-0.001-0.007-0.002-0.01c0-0.001,0-0.002,0-0.002c0-0.003-0.001-0.006-0.001-0.008c0-0.001,0-0.002,0-0.003
			c-0.001-0.003-0.001-0.006-0.002-0.009c0-0.001,0-0.002,0-0.003c0-0.002-0.001-0.005-0.001-0.008c0-0.001,0-0.002,0-0.003
			c0-0.003-0.001-0.006-0.002-0.009c0-0.001,0-0.002,0-0.002c0-0.003-0.001-0.005-0.001-0.008c0-0.001,0-0.002-0.001-0.003
			c0-0.003-0.001-0.006-0.001-0.008c0-0.001,0-0.002,0-0.003c0-0.003-0.001-0.006-0.002-0.009c0-0.001,0-0.002,0-0.003
			c0-0.002-0.001-0.005-0.001-0.007c0-0.001,0-0.002-0.001-0.003c0-0.003-0.001-0.006-0.001-0.009c0-0.001,0-0.003-0.001-0.004
			c0-0.002-0.001-0.004-0.001-0.006c0-0.001-0.001-0.003-0.001-0.004c0-0.003-0.001-0.006-0.002-0.009c0-0.001,0-0.002,0-0.004
			c0-0.002-0.001-0.004-0.001-0.006c0-0.001,0-0.003,0-0.004c0-0.002-0.001-0.004-0.001-0.006s-0.001-0.004-0.001-0.006
			c0-0.002-0.001-0.004-0.001-0.006s0-0.003-0.001-0.005s0-0.003-0.001-0.005s0-0.003-0.001-0.005c0-0.003-0.001-0.005-0.001-0.008
			c0-0.002,0-0.003-0.001-0.005c0-0.001-0.001-0.003-0.001-0.005c0-0.001-0.001-0.003-0.001-0.005c0-0.002-0.001-0.005-0.001-0.007
			s-0.001-0.004-0.001-0.006c0-0.001-0.001-0.003-0.001-0.004c0-0.002-0.001-0.004-0.001-0.006c0-0.001-0.001-0.003-0.001-0.005
			c0-0.002-0.001-0.005-0.001-0.007s-0.001-0.004-0.001-0.005c0-0.002-0.001-0.004-0.001-0.006c0-0.001-0.001-0.003-0.001-0.004
			c0-0.002-0.001-0.004-0.001-0.006c0-0.002-0.001-0.005-0.001-0.007s-0.001-0.004-0.001-0.005c0-0.002-0.001-0.004-0.001-0.005
			c0-0.002-0.001-0.003-0.001-0.005c0-0.002-0.001-0.004-0.001-0.005c0-0.003-0.001-0.006-0.002-0.009c0-0.001,0-0.002,0-0.004
			c0-0.001,0-0.003-0.001-0.005s0-0.003-0.001-0.004c0-0.003-0.001-0.007-0.001-0.01c0-0.001,0-0.002-0.001-0.004
			s0-0.003-0.001-0.005s0-0.003-0.001-0.004c0-0.003-0.001-0.007-0.001-0.01c0-0.001,0-0.002-0.001-0.004
			c0-0.001,0-0.003-0.001-0.005c0-0.001,0-0.003,0-0.004c0-0.002-0.001-0.004-0.001-0.006c0-0.001-0.001-0.003-0.001-0.005
			c0-0.002-0.001-0.005-0.002-0.008c0-0.001,0-0.003,0-0.004c0-0.002,0-0.004-0.001-0.006c0-0.001,0-0.003-0.001-0.004
			c0-0.003-0.001-0.006-0.001-0.009c0-0.001,0-0.003-0.001-0.004c0-0.002,0-0.004-0.001-0.006c0-0.001,0-0.002,0-0.004
			c0-0.003-0.001-0.007-0.002-0.01c0-0.001,0-0.002,0-0.003c0-0.002-0.001-0.004-0.001-0.006c0-0.001,0-0.002-0.001-0.004
			c0-0.002,0-0.003-0.001-0.005c0-0.001,0-0.002,0-0.002c0-0.004-0.001-0.008-0.002-0.012c0-0.001,0-0.002,0-0.004
			c0-0.001,0-0.003-0.001-0.005s0-0.003-0.001-0.004c0-0.003-0.001-0.007-0.001-0.01c0-0.001,0-0.002,0-0.004
			c0-0.002-0.001-0.004-0.001-0.006c0-0.001,0-0.002,0-0.003c0-0.004-0.001-0.007-0.002-0.011c0-0.001,0-0.002,0-0.003
			c0-0.002,0-0.004-0.001-0.006c0-0.001,0-0.002,0-0.003c-0.001-0.007-0.002-0.013-0.003-0.02c0-0.001,0-0.002,0-0.003
			c0-0.002-0.001-0.004-0.001-0.006c0-0.001,0-0.002,0-0.003c-0.001-0.004-0.001-0.007-0.002-0.011c0-0.001,0-0.002,0-0.003
			c0-0.002-0.001-0.004-0.001-0.006c0-0.001,0-0.002,0-0.004c0-0.003-0.001-0.006-0.001-0.01c0-0.001,0-0.002,0-0.003
			c0-0.002-0.001-0.004-0.001-0.006c0-0.001,0-0.003-0.001-0.004c0-0.002,0-0.004-0.001-0.006c0-0.001,0-0.001,0-0.002
			c0-0.004-0.001-0.008-0.001-0.011c0-0.002,0-0.003-0.001-0.004c0-0.002,0-0.004-0.001-0.006c0-0.001,0-0.002,0-0.004
			c0-0.003-0.001-0.006-0.001-0.009c0-0.002,0-0.003-0.001-0.004c0-0.002,0-0.004-0.001-0.006c0-0.001,0-0.002,0-0.004
			c0-0.003-0.001-0.006-0.001-0.009c0-0.002,0-0.003,0-0.004c0-0.002-0.001-0.004-0.001-0.006c0-0.001,0-0.003-0.001-0.004
			c-0.001-0.006-0.002-0.013-0.003-0.019c0-0.001,0-0.003,0-0.004c0-0.002,0-0.004-0.001-0.006c0-0.001,0-0.002,0-0.004
			c0-0.003-0.001-0.006-0.001-0.009c0-0.001,0-0.003-0.001-0.004c0-0.002,0-0.004-0.001-0.006c0-0.001,0-0.002,0-0.004
			c0-0.003-0.001-0.006-0.001-0.01c0-0.001,0-0.002,0-0.003c0-0.002-0.001-0.004-0.001-0.006c0-0.001,0-0.002,0-0.004
			c-0.001-0.006-0.002-0.013-0.003-0.019c0-0.001,0-0.003,0-0.004c0-0.002,0-0.004-0.001-0.006c0-0.001,0-0.002,0-0.003
			c0-0.004-0.001-0.007-0.001-0.011c0-0.001,0-0.002,0-0.003c0-0.002,0-0.004-0.001-0.006c0-0.001,0-0.002,0-0.003
			c0-0.004-0.001-0.008-0.002-0.011c0-0.001,0-0.002,0-0.003c0-0.002-0.001-0.004-0.001-0.006c0-0.001,0-0.002,0-0.004
			c-0.001-0.003-0.001-0.007-0.002-0.011c0-0.001,0-0.002,0-0.003c0-0.001,0-0.003,0-0.005c0-0.001,0-0.003-0.001-0.004
			c0-0.002,0-0.004,0-0.006c0-0.001,0-0.002,0-0.004c0-0.003-0.001-0.006-0.001-0.009c0-0.002,0-0.003-0.001-0.004
			c0-0.002,0-0.004,0-0.006c0-0.001,0-0.002,0-0.004c0-0.003-0.001-0.006-0.002-0.01c0-0.001,0-0.002,0-0.003
			c0-0.002,0-0.004,0-0.006c0-0.001,0-0.003-0.001-0.004c0-0.003,0-0.006-0.001-0.009c0-0.001,0-0.003-0.001-0.005
			c0-0.002,0-0.003,0-0.005c0-0.002,0-0.003,0-0.004c0-0.002,0-0.004-0.001-0.006c0-0.001,0-0.003-0.001-0.005
			c0-0.003,0-0.005-0.001-0.008c0-0.002,0-0.003,0-0.005c0-0.001,0-0.003-0.001-0.005c0-0.001,0-0.003,0-0.004
			c0-0.003-0.001-0.006-0.001-0.009c0-0.002,0-0.003,0-0.005c0-0.002,0-0.003-0.001-0.005c0-0.002,0-0.003,0-0.005
			c0-0.002,0-0.004-0.001-0.006c0-0.002,0-0.005-0.001-0.007c0-0.002,0-0.004,0-0.005c0-0.002,0-0.003,0-0.005
			c0-0.002,0-0.003-0.001-0.005s0-0.004-0.001-0.006c0-0.002,0-0.005-0.001-0.007c0-0.002,0-0.003,0-0.005
			c0-0.002,0-0.004-0.001-0.005c0-0.002,0-0.003,0-0.005c0-0.003,0-0.006-0.001-0.009c0-0.001,0-0.003,0-0.004
			c0-0.002,0-0.004-0.001-0.006c0-0.001,0-0.002,0-0.004c0-0.003-0.001-0.006-0.001-0.008c0-0.002,0-0.004-0.001-0.005
			c0-0.002,0-0.004,0-0.006c0-0.001,0-0.003-0.001-0.004c0-0.002,0-0.004,0-0.005c0-0.002,0-0.004,0-0.005
			c0-0.003-0.001-0.006-0.001-0.009c0-0.002,0-0.003,0-0.004c0-0.002,0-0.004,0-0.006c0-0.001,0-0.003,0-0.004
			c0-0.003-0.001-0.006-0.001-0.009c0-0.002,0-0.003,0-0.005c0-0.001,0-0.003,0-0.005c0-0.001,0-0.003-0.001-0.005
			c0-0.002,0-0.004-0.001-0.006c0-0.003,0-0.005,0-0.007c0-0.002,0-0.003-0.001-0.005c0-0.002,0-0.003,0-0.005
			c0-0.001,0-0.003,0-0.005c0-0.002,0-0.004-0.001-0.006c0-0.002,0-0.005-0.001-0.007c0-0.002,0-0.003,0-0.005
			c0-0.002,0-0.004,0-0.005c0-0.002,0-0.003,0-0.005c0-0.003-0.001-0.006-0.001-0.009c0-0.001,0-0.003,0-0.004
			c0-0.002,0-0.004,0-0.006c0-0.001,0-0.002,0-0.004c0-0.003-0.001-0.007-0.001-0.01c0-0.001,0-0.002,0-0.003
			c0-0.002,0-0.004,0-0.006c0-0.001,0-0.003,0-0.004c0-0.002,0-0.004-0.001-0.006c0-0.001,0-0.002,0-0.003
			c0-0.004-0.001-0.007-0.001-0.01c0-0.002,0-0.003,0-0.004c0-0.002,0-0.004,0-0.006c0-0.001,0-0.003,0-0.004
			c0-0.003-0.001-0.007-0.001-0.01c0-0.001,0-0.002,0-0.004c0-0.001,0-0.003,0-0.005s0-0.003,0-0.004
			c0-0.004-0.001-0.007-0.001-0.01c0-0.002,0-0.003,0-0.004c0-0.002,0-0.004-0.001-0.006c0-0.001,0-0.002,0-0.003
			c0-0.002,0-0.004,0-0.006c0-0.001,0-0.003,0-0.004c0-0.003,0-0.006-0.001-0.01c0-0.001,0-0.003,0-0.004
			c0-0.002,0-0.004-0.001-0.006c0-0.001,0-0.002,0-0.003c0-0.004-0.001-0.007-0.001-0.011c0-0.001,0-0.002,0-0.003
			c0-0.002,0-0.004,0-0.006c0-0.001,0-0.003,0-0.004c0-0.004-0.001-0.007-0.001-0.011c0-0.001,0-0.002,0-0.003
			c0-0.002,0-0.004,0-0.006c0-0.001,0-0.002,0-0.003c0-0.002,0-0.004-0.001-0.006c0-0.001,0-0.001,0-0.001
			c0-0.005-0.001-0.009-0.001-0.013c0-0.001,0-0.002,0-0.004c0-0.002,0-0.004-0.001-0.006c0-0.001,0-0.001,0-0.002
			c0-0.004-0.001-0.008-0.001-0.013c0,0,0-0.001,0-0.002c0-0.002,0-0.004,0-0.006c0-0.001,0-0.002,0-0.003
			c0-0.004,0-0.009-0.001-0.013c0,0,0-0.001,0-0.001c0-0.003,0-0.005,0-0.007c0-0.001,0-0.002,0-0.003
			c0-0.007-0.001-0.014-0.002-0.021c0-0.001,0-0.001,0-0.002c0-0.002,0-0.005,0-0.007l0,0c0-0.005-0.001-0.01-0.001-0.015
			c0,0,0-0.001,0-0.002c0-0.002,0-0.004,0-0.006c0-0.001,0-0.002,0-0.003c0-0.007-0.001-0.014-0.002-0.021c0,0,0,0,0-0.001
			c-0.001-0.007-0.002-0.015-0.002-0.021c0-0.001,0-0.001,0-0.002c-0.001-0.01-0.002-0.021-0.003-0.03l0,0
			C1.668,17.073,1.667,17.058,1.666,17.042L1.666,17.042L1.666,17.042z M2.606,20.915l-0.928,0.372
			c0.048,0.119,0.097,0.237,0.147,0.355c0.232,0.54,0.491,1.066,0.769,1.564l0.873-0.487c-0.132-0.237-0.259-0.479-0.38-0.727l0,0
			c-0.002-0.004-0.003-0.007-0.005-0.01l0-0.001c-0.008-0.017-0.016-0.033-0.024-0.05l0,0c-0.001-0.003-0.003-0.006-0.004-0.009
			c0-0.001,0-0.001-0.001-0.002c-0.001-0.003-0.002-0.006-0.004-0.008c0-0.001-0.001-0.002-0.001-0.003
			c-0.001-0.002-0.003-0.005-0.004-0.008c0-0.001-0.001-0.001-0.001-0.002c-0.001-0.003-0.002-0.006-0.004-0.009l0,0
			c-0.006-0.013-0.013-0.025-0.019-0.039c0,0-0.001-0.001-0.001-0.002c-0.001-0.002-0.002-0.005-0.004-0.008
			c0-0.001-0.001-0.002-0.001-0.003c-0.001-0.002-0.002-0.005-0.003-0.007c0-0.002-0.001-0.003-0.001-0.004
			c-0.001-0.002-0.002-0.005-0.003-0.007c0-0.001-0.001-0.002-0.001-0.004C3.001,21.817,3,21.814,2.999,21.812
			c0-0.001,0-0.001,0-0.001c-0.004-0.01-0.008-0.019-0.013-0.027c0-0.001-0.001-0.002-0.001-0.003
			c-0.001-0.003-0.002-0.005-0.003-0.007c0-0.002-0.001-0.003-0.001-0.004c-0.001-0.002-0.002-0.005-0.003-0.007
			c0-0.001-0.001-0.003-0.002-0.004c-0.001-0.003-0.002-0.005-0.003-0.007C2.97,21.752,2.97,21.75,2.969,21.749
			c-0.001-0.003-0.002-0.005-0.003-0.007c0-0.002-0.001-0.003-0.002-0.005c-0.001-0.002-0.002-0.004-0.003-0.006
			c0-0.002-0.001-0.003-0.002-0.005c-0.002-0.004-0.004-0.008-0.006-0.012c0-0.001-0.001-0.003-0.002-0.005
			c-0.001-0.002-0.002-0.003-0.003-0.005c0-0.002-0.001-0.004-0.002-0.006c0-0.002-0.001-0.004-0.002-0.006
			c-0.001-0.001-0.001-0.003-0.002-0.005s-0.002-0.004-0.002-0.006c-0.001-0.002-0.002-0.003-0.002-0.005
			c-0.001-0.002-0.002-0.004-0.003-0.006s-0.001-0.004-0.002-0.006s-0.001-0.003-0.002-0.005s-0.002-0.004-0.003-0.006
			c0-0.002-0.001-0.004-0.002-0.005c-0.001-0.004-0.003-0.007-0.005-0.01c0-0.002-0.001-0.004-0.002-0.006s-0.002-0.004-0.003-0.006
			c0-0.002-0.001-0.004-0.002-0.006c0-0.002-0.001-0.004-0.002-0.006c-0.001-0.001-0.001-0.003-0.002-0.005
			s-0.002-0.004-0.002-0.006c-0.001-0.002-0.002-0.003-0.002-0.005C2.9,21.6,2.899,21.597,2.898,21.595
			c-0.001-0.001-0.001-0.003-0.002-0.005s-0.002-0.004-0.003-0.006c0-0.002-0.001-0.003-0.002-0.005
			c-0.001-0.003-0.002-0.006-0.004-0.008c0-0.001,0-0.002-0.001-0.003c-0.002-0.004-0.003-0.008-0.005-0.011
			c0-0.002-0.001-0.003-0.002-0.004c-0.001-0.003-0.002-0.005-0.003-0.008c0-0.001-0.001-0.003-0.002-0.004
			c-0.001-0.002-0.002-0.005-0.003-0.007c0-0.002-0.001-0.003-0.002-0.005c-0.001-0.002-0.002-0.004-0.003-0.007
			c-0.001-0.001-0.001-0.003-0.002-0.004c-0.001-0.002-0.002-0.005-0.003-0.007c0-0.002-0.001-0.003-0.002-0.005
			S2.856,21.503,2.855,21.5c0-0.001-0.001-0.002-0.001-0.003c-0.001-0.004-0.003-0.007-0.005-0.011l0,0
			c-0.002-0.004-0.003-0.008-0.005-0.012c0-0.001,0-0.002-0.001-0.003c-0.001-0.003-0.002-0.006-0.004-0.008
			c0-0.002-0.001-0.003-0.001-0.004c-0.001-0.003-0.002-0.005-0.003-0.008c0-0.001-0.001-0.003-0.002-0.004
			c-0.001-0.002-0.002-0.005-0.003-0.007c0-0.002-0.001-0.003-0.002-0.005c-0.001-0.002-0.002-0.005-0.003-0.007
			c0-0.002-0.001-0.003-0.001-0.004c-0.001-0.003-0.003-0.006-0.004-0.009c0-0.001-0.001-0.002-0.001-0.002
			c-0.002-0.004-0.003-0.008-0.005-0.012c0-0.001,0-0.001,0-0.002c-0.001-0.003-0.003-0.006-0.004-0.009
			c0-0.002-0.001-0.003-0.001-0.005c-0.001-0.002-0.002-0.005-0.003-0.007c0-0.001-0.001-0.003-0.002-0.004
			c-0.001-0.003-0.002-0.005-0.003-0.008c0-0.001-0.001-0.003-0.002-0.004c-0.001-0.002-0.002-0.005-0.003-0.007
			c0-0.002-0.001-0.003-0.002-0.005c-0.001-0.002-0.002-0.005-0.003-0.007c-0.001-0.001-0.001-0.003-0.002-0.004
			c-0.001-0.003-0.003-0.007-0.004-0.01c0-0.001,0-0.001,0-0.002c-0.001-0.003-0.003-0.007-0.005-0.011
			c0-0.001-0.001-0.002-0.001-0.003c-0.001-0.003-0.002-0.006-0.003-0.009c0-0.001-0.001-0.002-0.002-0.004
			c-0.001-0.002-0.002-0.005-0.003-0.007c0-0.002-0.001-0.003-0.002-0.005c-0.001-0.002-0.002-0.004-0.003-0.007
			c-0.001-0.001-0.001-0.003-0.002-0.004c-0.001-0.003-0.002-0.005-0.003-0.007s-0.001-0.003-0.002-0.005
			c-0.001-0.003-0.002-0.005-0.003-0.008c0-0.001-0.001-0.002-0.001-0.003c-0.001-0.004-0.003-0.008-0.005-0.012l0,0
			c-0.024-0.056-0.047-0.11-0.07-0.166c-0.001-0.003-0.002-0.006-0.003-0.009c0-0.001,0-0.001,0-0.002
			C2.648,21.02,2.627,20.968,2.606,20.915L2.606,20.915z M4.558,24.394L3.76,24.997c0.413,0.546,0.867,1.067,1.349,1.55l0.062,0.062
			l0.703-0.711c-0.004-0.004-0.008-0.008-0.012-0.012c0,0-0.001-0.001-0.002-0.002s-0.002-0.002-0.003-0.003
			c-0.001-0.002-0.003-0.003-0.005-0.005c0,0,0,0,0-0.001c-0.012-0.012-0.024-0.023-0.036-0.035l0,0
			c-0.002-0.002-0.004-0.005-0.007-0.007c0,0-0.001-0.001-0.001-0.002c-0.002-0.002-0.004-0.004-0.006-0.006
			c0,0-0.001,0-0.001-0.001c-0.002-0.002-0.005-0.004-0.007-0.007c0,0,0,0,0-0.001c-0.002-0.002-0.004-0.004-0.006-0.006
			c0-0.001-0.001-0.001-0.001-0.001c-0.005-0.005-0.01-0.01-0.014-0.015c0,0-0.001,0-0.001-0.001
			c-0.005-0.005-0.01-0.01-0.014-0.015c0,0,0,0-0.001,0C5.327,25.345,4.927,24.883,4.558,24.394L4.558,24.394z M7.393,27.195
			l-0.594,0.806c0.564,0.416,1.171,0.802,1.802,1.146l0.479-0.879c-0.256-0.14-0.507-0.285-0.751-0.438l0,0
			c-0.009-0.006-0.019-0.012-0.027-0.018h0c-0.006-0.003-0.012-0.007-0.018-0.011c0,0,0,0,0-0.001
			c-0.003-0.001-0.006-0.003-0.009-0.005l0,0c-0.006-0.004-0.012-0.008-0.018-0.012c0,0-0.001,0-0.001,0
			c-0.006-0.004-0.011-0.008-0.017-0.012c0,0-0.001,0-0.001-0.001c-0.002-0.001-0.005-0.003-0.007-0.004
			c0-0.001-0.001-0.001-0.001-0.001c-0.003-0.002-0.005-0.004-0.008-0.006c0,0-0.001,0-0.001,0
			c-0.002-0.002-0.005-0.004-0.008-0.005c0-0.001-0.001-0.001-0.001-0.001c-0.003-0.002-0.005-0.004-0.008-0.006c0,0,0,0,0,0
			c-0.003-0.002-0.006-0.003-0.009-0.005c0-0.001-0.001-0.001-0.001-0.001c-0.002-0.002-0.004-0.003-0.007-0.005
			c0,0-0.001-0.001-0.002-0.001c-0.003-0.002-0.005-0.004-0.008-0.006c0,0,0,0-0.001,0c-0.002-0.002-0.005-0.003-0.007-0.005
			c0,0-0.001-0.001-0.002-0.001c-0.002-0.002-0.005-0.003-0.007-0.005c0,0-0.001-0.001-0.001-0.001
			c-0.003-0.002-0.005-0.003-0.008-0.005c0-0.001-0.001-0.001-0.002-0.002c-0.002-0.001-0.004-0.002-0.006-0.004
			c-0.001,0-0.001-0.001-0.002-0.001c-0.002-0.002-0.005-0.004-0.007-0.005c0-0.001-0.001-0.001-0.002-0.001
			c-0.002-0.002-0.004-0.003-0.007-0.005c-0.001,0-0.002-0.001-0.002-0.002c-0.002-0.001-0.004-0.002-0.006-0.004
			c-0.001,0-0.002-0.001-0.002-0.001c-0.002-0.002-0.005-0.004-0.008-0.005c-0.001-0.001-0.001-0.001-0.002-0.002
			c-0.002-0.001-0.004-0.002-0.006-0.004c-0.001,0-0.002-0.001-0.003-0.002c-0.002-0.001-0.004-0.002-0.006-0.004
			c-0.001,0-0.001-0.001-0.002-0.001c-0.002-0.002-0.004-0.003-0.007-0.005c-0.001-0.001-0.002-0.001-0.003-0.002
			c-0.002-0.001-0.003-0.002-0.005-0.004c-0.001,0-0.002-0.001-0.003-0.002c-0.002-0.001-0.005-0.003-0.007-0.005
			c-0.001,0-0.001-0.001-0.002-0.001c-0.002-0.001-0.003-0.003-0.005-0.004c-0.001-0.001-0.002-0.001-0.003-0.002
			c-0.001-0.001-0.003-0.002-0.005-0.004c-0.001,0-0.002-0.001-0.003-0.002c-0.002-0.001-0.005-0.003-0.007-0.004
			c-0.001-0.001-0.002-0.002-0.003-0.003c-0.001-0.001-0.003-0.002-0.005-0.003c-0.001-0.001-0.002-0.001-0.003-0.002
			c-0.002-0.002-0.005-0.003-0.007-0.005c-0.001,0-0.002-0.001-0.003-0.002c-0.001-0.001-0.003-0.002-0.005-0.003
			C8,27.62,7.999,27.619,7.998,27.618c-0.001-0.001-0.003-0.002-0.005-0.003c-0.001-0.001-0.002-0.001-0.003-0.002
			c-0.002-0.002-0.005-0.003-0.007-0.005c-0.001-0.001-0.002-0.001-0.003-0.002s-0.003-0.002-0.004-0.003s-0.002-0.002-0.003-0.003
			C7.97,27.6,7.968,27.599,7.966,27.598c-0.001-0.001-0.003-0.002-0.005-0.004c-0.001-0.001-0.003-0.002-0.005-0.003
			c-0.001-0.001-0.002-0.002-0.003-0.002c-0.001-0.001-0.003-0.002-0.005-0.003c-0.001-0.001-0.002-0.002-0.003-0.003
			c-0.002-0.001-0.004-0.003-0.007-0.005c-0.001,0-0.002-0.001-0.004-0.002s-0.002-0.002-0.004-0.003
			c-0.001-0.001-0.002-0.002-0.004-0.003s-0.003-0.002-0.004-0.003s-0.003-0.002-0.005-0.003c-0.001-0.001-0.003-0.003-0.005-0.004
			s-0.002-0.001-0.004-0.002s-0.003-0.002-0.004-0.003c-0.001-0.001-0.002-0.002-0.003-0.003c-0.002-0.001-0.004-0.003-0.007-0.004
			c-0.001-0.001-0.002-0.002-0.003-0.003s-0.003-0.002-0.005-0.003c-0.001-0.001-0.002-0.002-0.003-0.002
			c-0.002-0.002-0.004-0.003-0.005-0.004c-0.001-0.001-0.002-0.001-0.003-0.002c-0.002-0.001-0.005-0.003-0.007-0.005
			c-0.001-0.001-0.002-0.001-0.003-0.002c-0.001-0.001-0.003-0.002-0.005-0.003c-0.001-0.001-0.002-0.002-0.003-0.003
			c-0.002-0.001-0.005-0.003-0.007-0.005c0,0-0.001,0-0.001-0.001c-0.002-0.001-0.004-0.003-0.006-0.004
			c-0.001-0.001-0.002-0.001-0.003-0.002c-0.001-0.002-0.003-0.003-0.005-0.004c-0.001-0.001-0.002-0.001-0.002-0.002
			c-0.002-0.002-0.005-0.003-0.008-0.005c0-0.001-0.001-0.001-0.002-0.002c-0.001-0.001-0.003-0.002-0.005-0.004
			c-0.001,0-0.002-0.001-0.003-0.002c-0.002-0.001-0.004-0.003-0.007-0.004c0-0.001,0-0.001-0.001-0.001
			c-0.003-0.002-0.005-0.004-0.008-0.006c0,0-0.001-0.001-0.002-0.001c-0.002-0.002-0.004-0.003-0.006-0.004
			c-0.001-0.001-0.002-0.001-0.002-0.002c-0.003-0.002-0.005-0.004-0.008-0.005c0-0.001-0.001-0.001-0.002-0.002
			c-0.002-0.001-0.004-0.003-0.006-0.004c0-0.001-0.001-0.001-0.002-0.002c-0.003-0.002-0.005-0.003-0.008-0.005l0,0
			c-0.003-0.002-0.005-0.004-0.008-0.006c0,0-0.001-0.001-0.002-0.001c-0.002-0.002-0.004-0.003-0.007-0.005
			c0,0-0.001-0.001-0.001-0.001c-0.002-0.002-0.005-0.004-0.008-0.006l0,0c-0.002-0.002-0.005-0.004-0.008-0.006
			c0,0-0.001-0.001-0.001-0.001c-0.002-0.002-0.005-0.003-0.008-0.005l0-0.001c-0.003-0.002-0.006-0.004-0.008-0.006
			c0,0-0.001,0-0.001,0c-0.003-0.002-0.005-0.004-0.008-0.006c0,0,0,0-0.001,0c-0.005-0.004-0.011-0.009-0.017-0.013
			c0,0-0.001,0-0.001,0c-0.009-0.006-0.017-0.012-0.026-0.019c0,0,0,0,0,0C7.565,27.321,7.479,27.259,7.393,27.195L7.393,27.195z
			 M10.892,29.109l-0.361,0.933c0.667,0.259,1.355,0.471,2.046,0.63l0.225-0.975c-0.03-0.007-0.059-0.014-0.088-0.021h0
			c-0.007-0.002-0.014-0.004-0.021-0.005c0,0,0-0.001-0.001-0.001c-0.007-0.001-0.014-0.003-0.021-0.005c0,0-0.001,0-0.001,0
			c-0.003-0.001-0.006-0.002-0.009-0.002c0,0-0.001-0.001-0.001-0.001c-0.003,0-0.007-0.001-0.01-0.002
			c-0.001,0-0.001,0-0.002-0.001c-0.002,0-0.005-0.001-0.007-0.001c-0.001-0.001-0.002-0.001-0.003-0.001
			c-0.003-0.001-0.006-0.002-0.009-0.002c0-0.001-0.001-0.001-0.002-0.001c-0.002-0.001-0.005-0.001-0.007-0.002
			c-0.001,0-0.002,0-0.004-0.001c-0.002,0-0.005-0.001-0.007-0.002c-0.001,0-0.002,0-0.003,0c-0.002-0.001-0.005-0.002-0.007-0.002
			c-0.001-0.001-0.002-0.001-0.004-0.001c-0.002-0.001-0.004-0.001-0.006-0.002c-0.001,0-0.002,0-0.004-0.001
			c-0.002,0-0.005-0.001-0.008-0.002c-0.001,0-0.003-0.001-0.004-0.001s-0.003-0.001-0.005-0.001
			c-0.001-0.001-0.003-0.001-0.004-0.001c-0.002-0.001-0.004-0.001-0.006-0.002c-0.002-0.001-0.005-0.001-0.007-0.002
			c-0.001,0-0.003,0-0.004-0.001c-0.002,0-0.004-0.001-0.005-0.001c-0.001,0-0.002-0.001-0.003-0.001
			c-0.003-0.001-0.007-0.002-0.011-0.003c-0.001,0-0.001,0-0.002,0c-0.002-0.001-0.004-0.001-0.006-0.002
			c-0.001,0-0.002,0-0.003-0.001c-0.004-0.001-0.008-0.002-0.013-0.003h0c-0.002-0.001-0.004-0.001-0.006-0.002
			c-0.001,0-0.001,0-0.002,0c-0.007-0.002-0.014-0.004-0.021-0.006c0,0-0.001,0-0.001,0c-0.01-0.003-0.02-0.005-0.029-0.008
			c0,0,0,0,0,0c-0.324-0.084-0.646-0.18-0.964-0.287c0,0,0-0.001,0-0.001c-0.007-0.002-0.015-0.005-0.021-0.007c0,0,0,0-0.001,0
			c-0.007-0.003-0.014-0.005-0.021-0.008c0,0,0,0,0,0c-0.002-0.001-0.004-0.002-0.007-0.002c0-0.001-0.001-0.001-0.001-0.001
			c-0.007-0.002-0.014-0.005-0.021-0.007c0,0-0.001,0-0.002-0.001c-0.006-0.002-0.013-0.004-0.02-0.007c0,0-0.001,0-0.002-0.001
			c-0.002,0-0.004-0.001-0.006-0.002c-0.001,0-0.001,0-0.002,0c-0.003-0.002-0.007-0.003-0.01-0.004
			c-0.001-0.001-0.002-0.001-0.003-0.001c-0.002-0.001-0.003-0.002-0.005-0.002c-0.001-0.001-0.002-0.001-0.004-0.002
			c-0.003-0.001-0.006-0.002-0.009-0.003c-0.001,0-0.002-0.001-0.003-0.001c-0.002-0.001-0.004-0.001-0.006-0.002
			c-0.001-0.001-0.002-0.001-0.003-0.001c-0.001-0.001-0.003-0.002-0.005-0.002c-0.001-0.001-0.002-0.001-0.004-0.002
			c-0.003-0.001-0.006-0.002-0.008-0.003c-0.001,0-0.003-0.001-0.004-0.001c-0.001-0.001-0.003-0.001-0.005-0.002
			s-0.003-0.001-0.005-0.002c-0.002-0.001-0.005-0.002-0.007-0.002c-0.001-0.001-0.003-0.002-0.004-0.002
			c-0.002-0.001-0.003-0.001-0.005-0.002c-0.001,0-0.003-0.001-0.005-0.002c-0.002,0-0.004-0.001-0.006-0.002
			c-0.002,0-0.004-0.001-0.006-0.002c-0.001-0.001-0.003-0.001-0.004-0.002c-0.001,0-0.003-0.001-0.005-0.001
			c-0.001-0.001-0.002-0.001-0.004-0.002c-0.003-0.001-0.006-0.002-0.008-0.003c-0.001,0-0.002-0.001-0.004-0.001
			c-0.002-0.001-0.004-0.002-0.006-0.002c-0.001-0.001-0.002-0.001-0.003-0.002c-0.003-0.001-0.006-0.002-0.009-0.003
			c-0.001,0-0.001-0.001-0.002-0.001c-0.002-0.001-0.004-0.001-0.007-0.002c-0.001-0.001-0.002-0.001-0.003-0.002
			c-0.002-0.001-0.005-0.001-0.007-0.002c0-0.001-0.001-0.001-0.002-0.001c-0.003-0.001-0.006-0.002-0.009-0.003
			c-0.001-0.001-0.002-0.001-0.003-0.001c-0.002-0.001-0.005-0.002-0.007-0.003c-0.001,0-0.001-0.001-0.002-0.001
			c-0.003-0.001-0.006-0.002-0.009-0.003c-0.001-0.001-0.002-0.001-0.002-0.001c-0.003-0.001-0.005-0.002-0.008-0.003
			c0,0-0.001-0.001-0.002-0.001c-0.003-0.001-0.006-0.002-0.01-0.003c0-0.001,0-0.001,0-0.001c-0.003-0.001-0.006-0.002-0.009-0.003
			c0,0-0.001-0.001-0.002-0.001c-0.006-0.002-0.013-0.005-0.02-0.007c0,0-0.001-0.001-0.001-0.001
			c-0.003-0.001-0.006-0.002-0.009-0.003c0,0,0,0-0.001-0.001c-0.003-0.001-0.007-0.002-0.01-0.003c0,0-0.001-0.001-0.001-0.001
			c-0.003-0.001-0.006-0.002-0.009-0.003c0,0-0.001,0-0.001-0.001c-0.006-0.002-0.013-0.005-0.02-0.007c0,0-0.001,0-0.001-0.001
			c-0.007-0.002-0.013-0.005-0.02-0.007c0,0,0-0.001-0.001-0.001C10.988,29.146,10.94,29.128,10.892,29.109L10.892,29.109z
			 M14.776,30.006l-0.083,0.996c0.43,0.036,0.87,0.055,1.307,0.055c0.277,0,0.554-0.007,0.827-0.021l-0.053-0.999
			c-0.166,0.009-0.333,0.015-0.5,0.018l0,0c-0.004,0.001-0.007,0.001-0.011,0.001c0,0,0,0,0,0c-0.003,0-0.007,0-0.011,0c0,0,0,0,0,0
			c-0.03,0-0.06,0.001-0.089,0.001c0,0-0.001,0-0.002,0c-0.003,0-0.006,0-0.009,0c-0.001,0-0.002,0-0.003,0
			c-0.002,0-0.005,0-0.008,0c-0.001,0-0.003,0-0.004,0c-0.002,0-0.004,0-0.007,0c-0.001,0-0.003,0-0.005,0s-0.004,0.001-0.007,0.001
			c-0.001,0-0.003,0-0.005,0c-0.002,0-0.004,0-0.007,0c-0.001,0-0.003,0-0.005,0c-0.002,0-0.004,0-0.006,0s-0.004,0-0.006,0
			s-0.004,0-0.006,0s-0.004,0-0.006,0s-0.004,0-0.006,0s-0.004,0-0.006,0s-0.004,0-0.006,0s-0.004,0-0.006,0s-0.003,0-0.005,0
			c-0.002,0-0.004,0-0.007,0c-0.001,0-0.003,0-0.005,0c-0.002,0-0.005,0-0.007,0s-0.003,0-0.005,0c-0.002,0-0.005,0-0.007,0
			c-0.001,0-0.003,0-0.004,0c-0.004,0-0.008,0-0.012,0l0,0c-0.003,0-0.007,0-0.011,0c-0.001,0-0.002,0-0.003,0
			c-0.002,0-0.005,0-0.007,0c-0.001,0-0.002,0-0.004,0c-0.002,0-0.004,0-0.007,0c-0.001,0-0.002,0-0.004,0c-0.002,0-0.004,0-0.007,0
			c-0.001,0-0.003,0-0.004,0c-0.003,0-0.006,0-0.009,0c0,0-0.001,0-0.002,0c-0.003,0-0.007,0-0.01,0c-0.001,0-0.002,0-0.003,0
			c-0.002,0-0.005,0-0.008,0c-0.001,0-0.003,0-0.004,0c-0.002,0-0.004,0-0.007,0c-0.001,0-0.003,0-0.004,0c-0.002,0-0.004,0-0.007,0
			c-0.001,0-0.002,0-0.003,0c-0.003,0-0.005,0-0.008,0c-0.001,0-0.002,0-0.003,0c-0.003,0-0.007-0.001-0.011-0.001
			c0,0-0.001,0-0.002,0c-0.003,0-0.006,0-0.009,0c-0.001,0-0.002,0-0.003,0c-0.002,0-0.005,0-0.007,0c-0.001,0-0.002,0-0.004,0
			c-0.002,0-0.004,0-0.007,0c-0.001,0-0.002,0-0.004,0c-0.002,0-0.004,0-0.007,0c-0.001,0-0.002,0-0.004,0c-0.002,0-0.005,0-0.008,0
			c-0.001,0-0.002,0-0.003,0c-0.003,0-0.007,0-0.01,0c-0.001,0-0.002,0-0.004,0c-0.002,0-0.004,0-0.007,0c-0.001,0-0.003,0-0.004,0
			c-0.002-0.001-0.004-0.001-0.006-0.001c-0.001,0-0.003,0-0.004,0c-0.002,0-0.004,0-0.006,0c-0.001,0-0.003,0-0.004,0
			c-0.002,0-0.005,0-0.007,0c-0.001,0-0.002,0-0.003,0c-0.003,0-0.007,0-0.01,0c-0.001,0-0.002,0-0.003,0c-0.002,0-0.005,0-0.007,0
			c-0.001,0-0.003,0-0.004,0c-0.002,0-0.004,0-0.006-0.001c-0.001,0-0.003,0-0.004,0c-0.002,0-0.004,0-0.006,0
			c-0.001,0-0.003,0-0.004,0c-0.002,0-0.004,0-0.006,0c-0.001,0-0.003,0-0.004,0c-0.003,0-0.006,0-0.009,0c0,0-0.001,0-0.002,0
			c-0.003,0-0.006,0-0.009,0c-0.001-0.001-0.003-0.001-0.004-0.001c-0.002,0-0.004,0-0.006,0c-0.001,0-0.003,0-0.005,0
			s-0.004,0-0.005,0c-0.002,0-0.003,0-0.005,0c-0.002,0-0.004,0-0.006,0s-0.003,0-0.005,0c-0.002,0-0.004,0-0.006,0
			c-0.002-0.001-0.004-0.001-0.006-0.001c-0.003,0-0.006,0-0.009,0c-0.001,0-0.003,0-0.005,0c-0.002,0-0.004,0-0.006,0
			c-0.001,0-0.003,0-0.005,0s-0.003,0-0.005,0s-0.003-0.001-0.005-0.001c-0.001,0-0.003,0-0.005,0c-0.001,0-0.003,0-0.005,0
			c-0.001,0-0.003,0-0.005,0c-0.001,0-0.003,0-0.005,0c-0.002,0-0.005,0-0.007,0s-0.005-0.001-0.007-0.001c-0.002,0-0.004,0-0.006,0
			c-0.001,0-0.003,0-0.005,0c-0.002,0-0.003,0-0.005,0s-0.003,0-0.005,0s-0.003,0-0.005,0s-0.003-0.001-0.005-0.001
			c-0.001,0-0.003,0-0.005,0s-0.003,0-0.005,0s-0.003,0-0.005,0c-0.003,0-0.006,0-0.009,0c-0.002,0-0.004-0.001-0.005-0.001
			c-0.002,0-0.004,0-0.006,0c-0.001,0-0.003,0-0.005,0c-0.002,0-0.004,0-0.006,0c-0.001,0-0.003,0-0.004,0
			c-0.002,0-0.004-0.001-0.006-0.001c-0.001,0-0.003,0-0.004,0c-0.002,0-0.004,0-0.006,0c-0.001,0-0.003,0-0.004,0
			c-0.007,0-0.015-0.001-0.022-0.001c-0.001,0-0.002,0-0.003,0c-0.002,0-0.004,0-0.006,0c-0.001,0-0.003,0-0.004-0.001
			c-0.002,0-0.004,0-0.006,0c-0.001,0-0.003,0-0.004,0c-0.002,0-0.004,0-0.006,0c-0.001,0-0.002,0-0.004,0
			c-0.002,0-0.004-0.001-0.006-0.001c-0.001,0-0.002,0-0.003,0c-0.004,0-0.009,0-0.013,0c-0.001,0-0.002,0-0.003,0
			c-0.002-0.001-0.004-0.001-0.007-0.001c-0.001,0-0.002,0-0.003,0c-0.002,0-0.004,0-0.007,0c-0.001,0-0.002,0-0.003,0
			c-0.002,0-0.004-0.001-0.007-0.001c-0.001,0-0.002,0-0.003,0c-0.002,0-0.004,0-0.007,0c-0.001,0-0.001,0-0.002,0
			c-0.008-0.001-0.016-0.001-0.024-0.001c-0.001,0-0.002,0-0.003-0.001c-0.002,0-0.005,0-0.007,0c-0.001,0-0.002,0-0.003,0
			c-0.002,0-0.005,0-0.007,0c-0.001,0-0.002,0-0.003-0.001c-0.002,0-0.005,0-0.007,0c0,0-0.001,0-0.002,0
			c-0.009,0-0.018-0.001-0.027-0.001l0,0c-0.002-0.001-0.005-0.001-0.008-0.001c-0.001,0-0.001,0-0.002,0c-0.002,0-0.005,0-0.007,0
			c-0.001,0-0.002,0-0.002,0c-0.003-0.001-0.005-0.001-0.008-0.001c0,0-0.001,0-0.002,0c-0.012-0.001-0.024-0.001-0.036-0.002
			c0,0,0,0-0.001,0c-0.003,0-0.005,0-0.008,0c0-0.001-0.001-0.001-0.002-0.001c-0.002,0-0.005,0-0.008,0c0,0-0.001,0-0.002,0
			c-0.002,0-0.005,0-0.008-0.001h0c-0.012,0-0.024-0.001-0.037-0.002c0,0-0.001,0-0.001,0c-0.003,0-0.005,0-0.008-0.001
			c0,0-0.001,0-0.001,0c-0.003,0-0.006,0-0.009,0l0,0c-0.013-0.001-0.025-0.002-0.038-0.003c0,0,0,0,0,0c-0.003,0-0.006,0-0.009,0
			c0,0-0.001,0-0.001,0c-0.003,0-0.006-0.001-0.009-0.001c0,0,0,0,0,0C14.953,30.02,14.865,30.013,14.776,30.006L14.776,30.006z
			 M20.686,29.266c-0.002,0.001-0.004,0.001-0.006,0.002h-0.001c-0.003,0.002-0.006,0.003-0.009,0.004c-0.001,0-0.002,0-0.003,0.001
			c-0.003,0.001-0.005,0.001-0.008,0.002c0,0.001-0.001,0.001-0.002,0.001c-0.003,0.001-0.006,0.002-0.009,0.003
			c-0.001,0.001-0.002,0.001-0.003,0.001c-0.003,0.001-0.005,0.002-0.007,0.003c-0.001,0-0.002,0.001-0.003,0.001
			c-0.003,0.001-0.006,0.002-0.009,0.003c-0.001,0-0.002,0.001-0.003,0.001c-0.002,0.001-0.004,0.002-0.007,0.002
			c-0.001,0.001-0.002,0.001-0.003,0.002c-0.003,0-0.005,0.001-0.007,0.002c-0.001,0-0.002,0.001-0.003,0.001
			c-0.003,0.001-0.006,0.002-0.009,0.003c-0.001,0-0.002,0.001-0.004,0.001c-0.002,0.001-0.004,0.002-0.005,0.002
			c-0.002,0.001-0.003,0.001-0.004,0.002c-0.003,0.001-0.006,0.002-0.009,0.003c-0.001,0-0.002,0-0.004,0.001
			c-0.002,0-0.004,0.001-0.006,0.002c-0.001,0-0.002,0.001-0.004,0.001c-0.002,0.001-0.005,0.002-0.007,0.003
			c-0.002,0-0.003,0.001-0.005,0.001c-0.002,0.001-0.004,0.002-0.005,0.002c-0.002,0.001-0.003,0.001-0.005,0.002
			c-0.002,0-0.004,0.001-0.006,0.002c-0.001,0-0.003,0.001-0.004,0.001c-0.003,0.001-0.005,0.002-0.008,0.003
			c-0.001,0-0.003,0.001-0.004,0.001c-0.002,0.001-0.004,0.001-0.005,0.002c-0.002,0-0.003,0.001-0.005,0.001
			c-0.002,0.001-0.005,0.002-0.008,0.003c-0.001,0.001-0.003,0.001-0.004,0.002c-0.002,0-0.004,0.001-0.005,0.001
			c-0.002,0.001-0.003,0.001-0.005,0.002s-0.004,0.001-0.006,0.002s-0.004,0.001-0.006,0.002s-0.004,0.001-0.005,0.002
			c-0.002,0-0.004,0.001-0.005,0.001c-0.002,0.001-0.003,0.001-0.005,0.002s-0.005,0.002-0.007,0.002
			c-0.002,0.001-0.004,0.002-0.006,0.002c-0.001,0.001-0.003,0.001-0.004,0.002c-0.002,0-0.003,0.001-0.005,0.001
			c-0.001,0.001-0.003,0.001-0.005,0.002s-0.005,0.002-0.008,0.002c-0.001,0.001-0.003,0.002-0.005,0.002
			c-0.001,0.001-0.003,0.001-0.004,0.001c-0.002,0.001-0.004,0.002-0.006,0.002c0,0.001-0.001,0.001-0.002,0.001
			c-0.004,0.001-0.007,0.003-0.011,0.004c-0.001,0-0.002,0-0.003,0.001c-0.002,0-0.004,0.001-0.006,0.002
			c-0.001,0-0.002,0-0.003,0.001c-0.004,0.001-0.007,0.002-0.011,0.003c-0.001,0.001-0.001,0.001-0.002,0.001
			c-0.002,0.001-0.004,0.001-0.006,0.002c-0.001,0-0.002,0.001-0.003,0.001c-0.007,0.002-0.013,0.004-0.02,0.006
			c-0.001,0.001-0.002,0.001-0.003,0.001c-0.002,0.001-0.004,0.002-0.006,0.002h-0.001c-0.004,0.002-0.009,0.003-0.013,0.005
			c-0.001,0-0.001,0-0.002,0c-0.002,0.001-0.004,0.002-0.006,0.002c-0.001,0.001-0.002,0.001-0.002,0.001
			c-0.005,0.001-0.009,0.003-0.013,0.004c-0.001,0-0.001,0-0.001,0.001c-0.003,0-0.005,0.001-0.007,0.002c-0.001,0-0.001,0-0.002,0
			c-0.007,0.002-0.014,0.005-0.021,0.007c0,0-0.001,0-0.002,0c-0.007,0.003-0.014,0.005-0.021,0.007c-0.001,0-0.001,0-0.001,0
			c-0.002,0.001-0.005,0.002-0.007,0.003h-0.001c-0.007,0.002-0.015,0.005-0.021,0.007h-0.001c-0.007,0.002-0.014,0.005-0.021,0.007
			c0,0,0,0-0.001,0c-0.01,0.003-0.02,0.006-0.029,0.01l0,0c-0.008,0.002-0.015,0.004-0.022,0.007l0,0
			c-0.008,0.002-0.015,0.004-0.022,0.007l0,0c-0.448,0.137-0.902,0.25-1.362,0.34l0,0l0.193,0.981
			c0.697-0.137,1.393-0.327,2.066-0.563L20.686,29.266L20.686,29.266z M24.241,27.457c-0.093,0.064-0.187,0.127-0.281,0.189
			c-0.001,0-0.001,0-0.002,0.001c-0.002,0.001-0.004,0.002-0.005,0.003s-0.001,0.001-0.001,0.001
			c-0.004,0.002-0.007,0.005-0.011,0.007c-0.001,0-0.002,0.001-0.003,0.002s-0.003,0.002-0.004,0.003
			c-0.001,0-0.003,0.001-0.004,0.002c-0.002,0.001-0.004,0.003-0.006,0.004s-0.003,0.002-0.005,0.003
			c-0.001,0.001-0.003,0.002-0.004,0.003s-0.003,0.002-0.004,0.003c-0.002,0.001-0.003,0.001-0.004,0.002
			c-0.002,0.001-0.004,0.003-0.006,0.004c-0.001,0.001-0.003,0.002-0.004,0.003c-0.002,0.001-0.004,0.002-0.006,0.003
			c-0.001,0.001-0.002,0.002-0.003,0.002c-0.002,0.002-0.004,0.003-0.006,0.004c-0.001,0.001-0.001,0.001-0.002,0.002
			c-0.003,0.001-0.005,0.003-0.008,0.005c-0.001,0-0.001,0.001-0.002,0.001c-0.002,0.002-0.005,0.003-0.007,0.005
			c-0.001,0-0.001,0-0.002,0.001c-0.006,0.004-0.012,0.007-0.017,0.011c-0.001,0-0.001,0-0.001,0.001
			c-0.009,0.006-0.018,0.011-0.027,0.017l0,0c-0.313,0.2-0.636,0.391-0.97,0.569l0,0c-0.007,0.004-0.013,0.007-0.02,0.011l0,0
			c-0.003,0.002-0.006,0.003-0.009,0.005h-0.001c-0.006,0.004-0.013,0.007-0.019,0.01c0,0.001-0.001,0.001-0.002,0.001
			c-0.002,0.002-0.005,0.003-0.008,0.005c0,0,0,0-0.001,0c-0.003,0.002-0.006,0.003-0.009,0.005c0,0-0.001,0.001-0.002,0.001
			c-0.002,0.001-0.005,0.003-0.007,0.004c-0.001,0-0.002,0.001-0.002,0.001c-0.003,0.002-0.006,0.003-0.009,0.005
			c-0.001,0-0.001,0-0.001,0c-0.003,0.002-0.006,0.003-0.008,0.005c-0.001,0-0.002,0-0.003,0.001
			c-0.002,0.001-0.004,0.002-0.007,0.004c-0.001,0-0.001,0-0.002,0.001c-0.003,0.001-0.006,0.003-0.008,0.004
			s-0.003,0.001-0.004,0.002c-0.002,0.001-0.003,0.002-0.005,0.003c-0.001,0-0.003,0.001-0.004,0.002
			c-0.002,0.001-0.004,0.002-0.006,0.003s-0.004,0.002-0.006,0.003c-0.001,0.001-0.003,0.002-0.005,0.002
			c-0.001,0.001-0.003,0.002-0.004,0.003s-0.003,0.001-0.004,0.002c-0.002,0.001-0.003,0.002-0.005,0.002
			c-0.002,0.002-0.005,0.003-0.007,0.004s-0.003,0.002-0.005,0.003c-0.001,0-0.002,0.001-0.004,0.002
			c-0.001,0.001-0.003,0.001-0.005,0.002c-0.001,0.001-0.002,0.002-0.003,0.002c-0.003,0.002-0.006,0.003-0.01,0.005
			c0,0.001-0.001,0.001-0.002,0.001c-0.002,0.001-0.004,0.002-0.006,0.003c-0.001,0.001-0.002,0.001-0.002,0.002
			c-0.007,0.003-0.013,0.006-0.02,0.01h-0.001c-0.002,0.002-0.004,0.003-0.007,0.004l0,0c-0.007,0.004-0.014,0.007-0.021,0.011l0,0
			c-0.026,0.014-0.052,0.026-0.078,0.04l0.452,0.892c0.642-0.325,1.259-0.691,1.834-1.089L24.241,27.457L24.241,27.457z
			 M27.165,24.748c-0.067,0.083-0.136,0.166-0.204,0.248c-0.001,0-0.001,0-0.001,0.001c-0.003,0.002-0.005,0.005-0.007,0.007
			c0,0.001-0.001,0.001-0.001,0.002c-0.002,0.002-0.004,0.005-0.006,0.007c-0.001,0.001-0.001,0.001-0.002,0.002
			c-0.002,0.002-0.004,0.004-0.006,0.007c0,0-0.001,0.001-0.002,0.002c-0.001,0.002-0.003,0.004-0.005,0.006
			c-0.001,0.001-0.001,0.002-0.002,0.003c-0.002,0.002-0.004,0.004-0.005,0.006c-0.001,0.001-0.002,0.002-0.003,0.003
			c-0.001,0.002-0.003,0.004-0.005,0.005c0,0.001-0.001,0.003-0.002,0.004c-0.002,0.001-0.003,0.003-0.005,0.005
			c-0.001,0.001-0.002,0.002-0.003,0.003c-0.001,0.002-0.003,0.004-0.004,0.005c-0.001,0.002-0.002,0.003-0.003,0.004
			c-0.002,0.002-0.003,0.003-0.005,0.005c-0.001,0.001-0.002,0.002-0.003,0.004c-0.002,0.002-0.004,0.005-0.007,0.008
			c-0.001,0.001-0.002,0.003-0.003,0.004s-0.003,0.003-0.004,0.005c-0.002,0.001-0.003,0.003-0.004,0.005
			c-0.001,0.001-0.002,0.002-0.003,0.003c-0.002,0.002-0.003,0.003-0.005,0.005c-0.001,0.001-0.002,0.002-0.003,0.004
			c-0.001,0.001-0.003,0.003-0.004,0.005c-0.001,0.001-0.002,0.002-0.003,0.003c-0.002,0.002-0.003,0.004-0.005,0.005
			c-0.001,0.001-0.002,0.002-0.003,0.004c-0.001,0.001-0.003,0.003-0.004,0.005c-0.001,0.001-0.002,0.002-0.003,0.003
			c-0.001,0.002-0.003,0.004-0.005,0.005c0,0.001-0.001,0.002-0.002,0.003c-0.002,0.002-0.003,0.004-0.005,0.006
			c-0.001,0.001-0.002,0.002-0.002,0.003c-0.002,0.002-0.004,0.004-0.005,0.005s-0.002,0.002-0.002,0.003
			c-0.002,0.002-0.004,0.004-0.006,0.006c0,0.001-0.001,0.001-0.001,0.001c-0.016,0.019-0.032,0.037-0.048,0.055l-0.001,0.001
			c-0.002,0.002-0.004,0.005-0.006,0.007c-0.001,0-0.001,0.001-0.001,0.001c-0.002,0.003-0.004,0.005-0.006,0.007
			c-0.001,0.001-0.001,0.001-0.002,0.002c-0.002,0.002-0.004,0.004-0.006,0.007c0,0-0.001,0-0.001,0.001
			c-0.002,0.002-0.004,0.004-0.006,0.007l-0.001,0.001c-0.002,0.002-0.005,0.005-0.007,0.007v0.001
			c-0.002,0.002-0.005,0.005-0.007,0.008l0,0c-0.02,0.021-0.038,0.042-0.057,0.062v0.001c-0.003,0.002-0.005,0.005-0.007,0.007
			c-0.001,0-0.001,0.001-0.001,0.001c-0.002,0.002-0.004,0.005-0.006,0.007c-0.001,0.001-0.001,0.001-0.001,0.001
			c-0.003,0.003-0.005,0.005-0.007,0.007c0,0.001,0,0.001-0.001,0.001c-0.002,0.003-0.004,0.005-0.006,0.007
			c-0.001,0.001-0.001,0.001-0.001,0.001c-0.002,0.003-0.005,0.005-0.007,0.008l0,0c-0.003,0.003-0.005,0.005-0.007,0.008
			c0,0,0,0-0.001,0c-0.021,0.023-0.042,0.047-0.063,0.07c-0.001,0-0.001,0-0.001,0c-0.002,0.003-0.004,0.005-0.006,0.008
			c-0.001,0-0.001,0-0.002,0.001c-0.002,0.002-0.004,0.004-0.006,0.007c0,0-0.001,0-0.001,0.001
			c-0.002,0.002-0.004,0.004-0.006,0.007c-0.001,0-0.001,0.001-0.002,0.001c-0.002,0.002-0.004,0.005-0.006,0.007L26.53,25.48
			c-0.002,0.002-0.004,0.005-0.006,0.007c-0.001,0-0.001,0.001-0.002,0.001c-0.002,0.002-0.004,0.005-0.006,0.007c0,0,0,0,0,0.001
			c-0.015,0.015-0.029,0.03-0.043,0.045c-0.001,0.001-0.001,0.001-0.001,0.001c-0.002,0.002-0.004,0.004-0.006,0.007
			c-0.001,0-0.001,0.001-0.002,0.001c-0.002,0.002-0.004,0.004-0.006,0.006c0,0.001-0.001,0.002-0.001,0.002
			c-0.002,0.002-0.004,0.004-0.006,0.006c-0.001,0.001-0.002,0.002-0.002,0.003c-0.002,0.002-0.004,0.004-0.006,0.005
			c0,0.001-0.001,0.002-0.002,0.003c-0.002,0.002-0.004,0.004-0.005,0.005s-0.002,0.002-0.003,0.003
			c-0.001,0.002-0.003,0.004-0.005,0.005c-0.001,0.001-0.002,0.002-0.003,0.003c-0.001,0.002-0.003,0.004-0.005,0.006
			c0,0-0.001,0.001-0.002,0.002c-0.002,0.002-0.004,0.004-0.005,0.006c-0.001,0.001-0.002,0.001-0.003,0.002
			c-0.002,0.002-0.003,0.004-0.005,0.006c-0.001,0-0.001,0.001-0.002,0.002c-0.009,0.009-0.018,0.019-0.026,0.027
			c-0.001,0.001-0.001,0.001-0.002,0.002c-0.002,0.002-0.003,0.003-0.005,0.005c-0.001,0.001-0.002,0.002-0.003,0.003
			c-0.001,0.002-0.003,0.003-0.004,0.005c-0.001,0.001-0.002,0.002-0.004,0.003c-0.001,0.002-0.003,0.003-0.004,0.005
			c-0.001,0.001-0.002,0.002-0.003,0.003c-0.002,0.002-0.003,0.003-0.005,0.005c-0.001,0.001-0.002,0.002-0.003,0.003
			c-0.002,0.002-0.003,0.004-0.005,0.005c-0.001,0.001-0.002,0.002-0.003,0.003c-0.002,0.002-0.003,0.004-0.004,0.005
			c-0.002,0.001-0.003,0.003-0.004,0.004s-0.003,0.003-0.004,0.004c-0.002,0.001-0.003,0.003-0.004,0.004s-0.003,0.003-0.004,0.004
			s-0.003,0.003-0.004,0.004s-0.003,0.003-0.004,0.004c-0.001,0.002-0.003,0.003-0.004,0.004s-0.003,0.003-0.004,0.004
			c-0.001,0.002-0.003,0.003-0.004,0.005c-0.001,0.001-0.003,0.002-0.004,0.003c-0.001,0.002-0.003,0.004-0.004,0.005
			c-0.003,0.002-0.005,0.005-0.007,0.007s-0.003,0.003-0.004,0.004c-0.002,0.002-0.003,0.003-0.004,0.004
			c-0.002,0.002-0.003,0.003-0.004,0.005c-0.002,0.001-0.003,0.002-0.004,0.003c-0.002,0.002-0.003,0.003-0.004,0.005
			c-0.002,0.001-0.003,0.002-0.004,0.003c-0.002,0.002-0.003,0.003-0.004,0.005c-0.002,0.001-0.003,0.002-0.004,0.004
			c-0.001,0.001-0.003,0.002-0.004,0.004c-0.002,0.001-0.003,0.002-0.004,0.004c-0.001,0.001-0.003,0.003-0.004,0.004
			c-0.002,0.001-0.003,0.002-0.004,0.004c-0.001,0.001-0.003,0.003-0.004,0.004c-0.002,0.001-0.003,0.003-0.004,0.004
			s-0.003,0.003-0.004,0.004c-0.002,0.001-0.003,0.003-0.004,0.004s-0.003,0.003-0.004,0.004c-0.002,0.001-0.003,0.003-0.004,0.004
			s-0.003,0.003-0.005,0.005c-0.001,0.001-0.002,0.002-0.003,0.003c-0.002,0.002-0.003,0.003-0.005,0.005
			c-0.001,0.001-0.002,0.002-0.003,0.003c-0.002,0.002-0.004,0.004-0.006,0.006c0,0-0.001,0.001-0.002,0.002
			c-0.003,0.003-0.005,0.005-0.008,0.008l0,0c-0.002,0.002-0.005,0.005-0.007,0.007c-0.001,0.001-0.001,0.001-0.002,0.002
			c-0.002,0.002-0.003,0.003-0.005,0.005c-0.001,0.001-0.002,0.002-0.002,0.002c-0.002,0.002-0.004,0.004-0.006,0.006
			c-0.001,0-0.001,0.001-0.001,0.001c-0.003,0.003-0.005,0.005-0.008,0.008c0,0,0,0-0.001,0.001
			c-0.002,0.002-0.004,0.004-0.006,0.006c0,0-0.001,0.001-0.002,0.001c-0.002,0.002-0.003,0.004-0.005,0.006
			c-0.001,0.001-0.001,0.001-0.002,0.002c-0.005,0.004-0.01,0.009-0.014,0.014c-0.001,0-0.001,0.001-0.002,0.002
			c-0.002,0.001-0.004,0.003-0.006,0.005c0,0.001-0.001,0.001-0.001,0.002c-0.003,0.002-0.005,0.004-0.007,0.006
			c0,0.001,0,0.001-0.001,0.001c-0.005,0.005-0.01,0.01-0.015,0.015c0,0,0,0,0,0.001c-0.003,0.002-0.005,0.004-0.007,0.006
			c-0.001,0.001-0.001,0.001-0.001,0.001c-0.005,0.005-0.01,0.01-0.015,0.015l0,0c-0.003,0.002-0.005,0.005-0.008,0.007v0.001
			c-0.086,0.084-0.174,0.167-0.262,0.248l0.68,0.733c0.14-0.129,0.276-0.26,0.41-0.395c0.369-0.369,0.724-0.764,1.053-1.171
			L27.165,24.748L27.165,24.748z M29.221,21.33c-0.034,0.078-0.068,0.155-0.104,0.232c0,0,0,0.001-0.001,0.001
			c-0.003,0.007-0.006,0.014-0.009,0.021c0,0,0,0-0.001,0.001c-0.001,0.002-0.002,0.004-0.003,0.007c0,0,0,0,0,0.001
			c-0.002,0.004-0.004,0.008-0.006,0.013c0,0,0,0-0.001,0.001c-0.001,0.002-0.002,0.004-0.003,0.006c0,0.001,0,0.001-0.001,0.002
			c-0.002,0.007-0.005,0.013-0.008,0.019c-0.001,0.001-0.001,0.002-0.002,0.003c-0.001,0.002-0.001,0.004-0.002,0.006
			c-0.001,0.001-0.001,0.002-0.001,0.002c-0.002,0.004-0.004,0.007-0.005,0.011c-0.001,0.001-0.001,0.002-0.002,0.003
			c-0.001,0.002-0.001,0.004-0.002,0.006c-0.001,0.001-0.001,0.002-0.002,0.003c-0.001,0.003-0.002,0.005-0.004,0.008
			c0,0.002-0.001,0.003-0.002,0.005c-0.001,0.001-0.001,0.003-0.002,0.005c-0.001,0.001-0.001,0.002-0.002,0.004
			c-0.001,0.001-0.001,0.003-0.002,0.005c-0.001,0.001-0.001,0.002-0.002,0.003c-0.001,0.003-0.003,0.006-0.004,0.009
			c-0.001,0.001-0.001,0.003-0.002,0.004c-0.001,0.002-0.001,0.003-0.002,0.005c-0.001,0.001-0.002,0.003-0.002,0.004
			c-0.001,0.003-0.003,0.005-0.004,0.008c0,0.001-0.001,0.003-0.002,0.004c-0.001,0.002-0.001,0.004-0.002,0.005
			c-0.001,0.002-0.001,0.003-0.002,0.005c-0.001,0.001-0.002,0.003-0.003,0.005s-0.002,0.005-0.003,0.007
			c-0.001,0.001-0.001,0.003-0.002,0.004c-0.001,0.002-0.001,0.003-0.002,0.005s-0.001,0.003-0.002,0.004
			c-0.001,0.003-0.003,0.005-0.004,0.008c0,0.001-0.001,0.003-0.002,0.004c-0.001,0.002-0.001,0.004-0.002,0.005
			c-0.001,0.002-0.002,0.003-0.002,0.004c-0.001,0.002-0.002,0.005-0.003,0.007c-0.001,0.001-0.001,0.001-0.001,0.002
			c-0.002,0.003-0.003,0.006-0.004,0.009c-0.001,0.001-0.001,0.002-0.002,0.003c-0.001,0.002-0.002,0.004-0.003,0.006
			c0,0.001-0.001,0.002-0.001,0.003c-0.002,0.003-0.003,0.006-0.004,0.009c-0.001,0.001-0.002,0.002-0.002,0.003
			c-0.001,0.002-0.002,0.004-0.003,0.006c0,0.001-0.001,0.002-0.001,0.004c-0.002,0.002-0.003,0.005-0.004,0.007
			c-0.001,0.001-0.001,0.002-0.002,0.003c-0.001,0.003-0.002,0.005-0.003,0.007c0,0.001-0.001,0.002-0.002,0.004
			s-0.002,0.004-0.002,0.006c-0.001,0.001-0.001,0.002-0.002,0.003c-0.001,0.003-0.003,0.005-0.004,0.008
			c-0.001,0.001-0.001,0.002-0.002,0.003c-0.001,0.003-0.002,0.005-0.003,0.007c0,0.001-0.001,0.002-0.001,0.003
			c-0.001,0.003-0.003,0.006-0.004,0.008c-0.001,0.001-0.001,0.002-0.001,0.003c-0.001,0.002-0.002,0.004-0.003,0.006
			s-0.002,0.003-0.002,0.004c-0.001,0.002-0.003,0.005-0.004,0.007c0,0.001,0,0.002-0.001,0.002
			c-0.001,0.003-0.002,0.006-0.004,0.009c0,0.001-0.001,0.002-0.001,0.003c-0.001,0.002-0.002,0.004-0.003,0.006
			c-0.001,0.001-0.001,0.002-0.002,0.003c-0.001,0.003-0.002,0.006-0.004,0.008c0,0.002-0.001,0.002-0.001,0.004
			c-0.001,0.002-0.002,0.004-0.003,0.006c-0.001,0.001-0.001,0.002-0.002,0.003c-0.001,0.003-0.003,0.006-0.004,0.009l-0.001,0.001
			c-0.001,0.003-0.002,0.005-0.004,0.008c0,0.001-0.001,0.002-0.001,0.003c-0.001,0.002-0.002,0.004-0.004,0.007
			c0,0,0,0.001-0.001,0.002c-0.001,0.003-0.002,0.006-0.004,0.009c0,0.001-0.001,0.001-0.001,0.002
			c-0.001,0.003-0.002,0.005-0.004,0.007c0,0.001,0,0.002-0.001,0.003c-0.001,0.003-0.003,0.006-0.004,0.009l-0.001,0.001
			c-0.001,0.003-0.003,0.005-0.004,0.008c0,0.001-0.001,0.002-0.001,0.003c-0.002,0.003-0.003,0.005-0.004,0.008l-0.001,0.001
			c-0.001,0.003-0.003,0.006-0.004,0.009c0,0.001-0.001,0.001-0.001,0.002c-0.002,0.003-0.003,0.005-0.004,0.007
			c0,0.001-0.001,0.002-0.001,0.003c-0.001,0.003-0.003,0.005-0.004,0.008c-0.001,0.001-0.001,0.002-0.002,0.003
			c-0.001,0.002-0.002,0.005-0.003,0.007c0,0.001-0.001,0.001-0.001,0.002c-0.002,0.003-0.003,0.006-0.005,0.009
			c0,0.001,0,0.001,0,0.002c-0.002,0.002-0.003,0.005-0.004,0.008c-0.001,0-0.001,0.001-0.002,0.002
			c-0.001,0.003-0.002,0.005-0.004,0.008v0.001c-0.002,0.003-0.003,0.006-0.005,0.009c0,0.001,0,0.002-0.001,0.003
			c-0.001,0.002-0.002,0.004-0.004,0.007c0,0.001,0,0.001-0.001,0.002c-0.001,0.003-0.003,0.006-0.004,0.009
			c0,0.001-0.001,0.001-0.001,0.002c-0.001,0.002-0.002,0.005-0.004,0.007c0,0.001-0.001,0.002-0.001,0.003
			c-0.002,0.003-0.003,0.006-0.005,0.009l0,0c-0.001,0.003-0.003,0.006-0.004,0.009c-0.001,0.001-0.001,0.001-0.001,0.002
			c-0.002,0.003-0.003,0.005-0.004,0.008l-0.001,0.001c-0.002,0.003-0.003,0.006-0.005,0.009c0,0.001,0,0.002-0.001,0.003
			c-0.001,0.002-0.002,0.004-0.003,0.007c-0.001,0.001-0.001,0.001-0.002,0.002c-0.001,0.003-0.003,0.006-0.004,0.009
			c0,0.001-0.001,0.001-0.001,0.002c-0.001,0.002-0.002,0.005-0.004,0.007c0,0.001-0.001,0.002-0.001,0.003
			c-0.001,0.002-0.003,0.005-0.004,0.007c0,0.001,0,0.001-0.001,0.002c-0.001,0.003-0.003,0.006-0.004,0.009
			c-0.001,0-0.001,0.001-0.001,0.002c-0.002,0.003-0.003,0.005-0.004,0.007c-0.001,0.001-0.001,0.002-0.001,0.002
			c-0.002,0.003-0.003,0.006-0.005,0.009c0,0.001,0,0.002-0.001,0.002c-0.001,0.003-0.002,0.005-0.003,0.007
			c-0.001,0.001-0.001,0.002-0.002,0.003c-0.001,0.003-0.003,0.006-0.004,0.009h-0.001c-0.001,0.003-0.003,0.006-0.004,0.009
			c0,0.001-0.001,0.002-0.001,0.003c-0.002,0.002-0.003,0.004-0.004,0.007c0,0-0.001,0.001-0.001,0.002
			c-0.002,0.003-0.003,0.005-0.005,0.008c0,0.001-0.001,0.002-0.001,0.003c-0.001,0.002-0.002,0.004-0.003,0.007
			c-0.001,0.001-0.001,0.001-0.002,0.002c-0.001,0.003-0.003,0.006-0.004,0.009c-0.001,0.001-0.001,0.001-0.001,0.002
			c-0.002,0.002-0.003,0.005-0.004,0.007c0,0.001-0.001,0.002-0.001,0.003c-0.002,0.002-0.003,0.005-0.004,0.007
			c-0.001,0.001-0.001,0.002-0.001,0.002c-0.002,0.003-0.003,0.006-0.005,0.008c0,0.001-0.001,0.002-0.001,0.003
			c-0.001,0.002-0.002,0.004-0.004,0.007c0,0.001,0,0.001-0.001,0.002c-0.001,0.003-0.003,0.006-0.004,0.009
			c-0.001,0.001-0.001,0.002-0.002,0.003c-0.001,0.002-0.002,0.003-0.003,0.005c0,0.002-0.001,0.003-0.002,0.004
			c-0.001,0.003-0.003,0.005-0.004,0.008c0,0.001-0.001,0.002-0.001,0.002c-0.001,0.003-0.003,0.005-0.004,0.007
			c0,0.001-0.001,0.002-0.001,0.003c-0.002,0.002-0.003,0.005-0.004,0.007c0,0.001-0.001,0.001-0.001,0.002
			c-0.001,0.003-0.003,0.005-0.004,0.008c-0.001,0.001-0.002,0.002-0.002,0.004c-0.001,0.002-0.002,0.003-0.003,0.005
			c-0.001,0.001-0.001,0.003-0.002,0.004c-0.001,0.002-0.003,0.005-0.004,0.008c-0.001,0.001-0.001,0.002-0.002,0.003
			c-0.001,0.002-0.002,0.004-0.003,0.006c-0.001,0.001-0.001,0.002-0.002,0.003c-0.001,0.002-0.002,0.004-0.003,0.006
			s-0.002,0.003-0.002,0.005c-0.002,0.002-0.003,0.004-0.004,0.006c0,0.001-0.001,0.002-0.002,0.003
			c-0.001,0.002-0.002,0.004-0.003,0.006c0,0.001-0.001,0.002-0.001,0.003c-0.002,0.003-0.003,0.006-0.005,0.008
			c0,0.001-0.001,0.003-0.002,0.004c0,0.001-0.001,0.003-0.002,0.005c-0.001,0.001-0.002,0.002-0.002,0.004
			c-0.002,0.002-0.003,0.004-0.004,0.007c-0.001,0.001-0.002,0.003-0.002,0.004c-0.001,0.002-0.002,0.003-0.003,0.005
			c-0.001,0.001-0.002,0.003-0.002,0.004c-0.001,0.002-0.002,0.004-0.003,0.005c-0.001,0.002-0.002,0.004-0.003,0.006
			s-0.002,0.003-0.003,0.005s-0.002,0.003-0.003,0.005c0,0.001-0.001,0.002-0.002,0.004c0,0.001-0.001,0.003-0.002,0.004
			c-0.001,0.003-0.003,0.005-0.004,0.007s-0.002,0.004-0.003,0.005c0,0.001-0.001,0.003-0.002,0.004
			c0,0.002-0.001,0.003-0.002,0.005c-0.001,0.001-0.002,0.003-0.003,0.004c-0.001,0.003-0.002,0.005-0.003,0.007
			s-0.002,0.003-0.003,0.004c-0.001,0.002-0.001,0.003-0.002,0.005c-0.001,0.001-0.002,0.003-0.002,0.004
			c-0.002,0.002-0.003,0.005-0.004,0.007s-0.002,0.003-0.003,0.005c-0.001,0.001-0.001,0.003-0.002,0.004
			c-0.001,0.002-0.002,0.003-0.002,0.004c-0.001,0.002-0.002,0.003-0.003,0.005s-0.002,0.003-0.003,0.005s-0.002,0.004-0.003,0.006
			s-0.002,0.003-0.003,0.004c0,0.002-0.001,0.004-0.002,0.005s-0.002,0.003-0.002,0.004c-0.002,0.003-0.003,0.005-0.005,0.008
			c0,0.001-0.001,0.002-0.002,0.004c0,0.001-0.001,0.003-0.002,0.004c-0.001,0.002-0.002,0.003-0.002,0.004
			c-0.002,0.003-0.004,0.007-0.006,0.01c0,0,0,0.001-0.001,0.002c-0.001,0.002-0.002,0.003-0.003,0.005
			c0,0.001-0.001,0.002-0.001,0.003c-0.001,0.002-0.002,0.004-0.003,0.005s-0.001,0.002-0.002,0.003
			c-0.002,0.003-0.003,0.006-0.005,0.01c-0.001,0-0.001,0.001-0.002,0.002c-0.001,0.002-0.002,0.004-0.003,0.006
			c0,0-0.001,0.001-0.001,0.002c-0.002,0.004-0.004,0.008-0.006,0.011c0,0.001-0.001,0.001-0.001,0.001
			c-0.001,0.002-0.002,0.004-0.003,0.006c0,0.001-0.001,0.002-0.001,0.002c-0.004,0.006-0.007,0.013-0.011,0.019
			c0,0,0,0.001-0.001,0.001c-0.001,0.003-0.002,0.005-0.003,0.007c0,0,0,0-0.001,0.001c-0.002,0.004-0.004,0.008-0.007,0.012
			c0,0,0,0,0,0.001c-0.001,0.002-0.002,0.004-0.003,0.006c-0.001,0-0.001,0.001-0.001,0.001c-0.004,0.007-0.007,0.013-0.011,0.019
			c0,0.001,0,0.001-0.001,0.002c-0.003,0.006-0.007,0.013-0.011,0.019c0,0.001,0,0.001,0,0.001
			c-0.001,0.002-0.003,0.004-0.004,0.006c0,0.001,0,0.001,0,0.001c-0.004,0.007-0.008,0.014-0.012,0.02l0,0
			c-0.004,0.007-0.007,0.014-0.011,0.021l0,0c-0.01,0.016-0.019,0.031-0.027,0.047l0,0c-0.04,0.068-0.08,0.138-0.121,0.205
			l0.858,0.514c0.356-0.596,0.684-1.232,0.971-1.893L29.221,21.33L29.221,21.33z M30.285,17.489
			c-0.039,0.303-0.088,0.604-0.146,0.902v0.001c-0.002,0.007-0.003,0.015-0.005,0.021c0,0.001,0,0.001,0,0.002
			c-0.001,0.007-0.003,0.014-0.004,0.021c0,0.001-0.001,0.002-0.001,0.002c0,0.002-0.001,0.005-0.001,0.007c0,0.001,0,0.001,0,0.002
			c-0.001,0.004-0.002,0.008-0.003,0.012c0,0.001,0,0.002,0,0.002c-0.001,0.002-0.001,0.005-0.002,0.007c0,0.001,0,0.002,0,0.003
			c-0.001,0.006-0.003,0.013-0.004,0.019c0,0.001-0.001,0.003-0.001,0.004c0,0.002-0.001,0.004-0.001,0.006
			c0,0.001-0.001,0.002-0.001,0.004c0,0.003-0.001,0.006-0.002,0.009c0,0.001,0,0.003-0.001,0.004c0,0.002,0,0.004-0.001,0.005
			c0,0.002,0,0.004-0.001,0.005c0,0.003-0.001,0.005-0.001,0.007s-0.001,0.004-0.001,0.006c-0.001,0.002-0.001,0.003-0.001,0.005
			c-0.001,0.002-0.001,0.004-0.001,0.005c-0.001,0.002-0.001,0.003-0.001,0.005c-0.001,0.003-0.001,0.005-0.002,0.008
			c0,0.002-0.001,0.003-0.001,0.004c0,0.002-0.001,0.004-0.001,0.006s-0.001,0.003-0.001,0.004
			c-0.001,0.003-0.001,0.006-0.002,0.009c0,0.001,0,0.002,0,0.003c-0.001,0.002-0.001,0.005-0.002,0.007
			c0,0.002,0,0.003-0.001,0.004c0,0.002-0.001,0.005-0.001,0.007c0,0.001-0.001,0.002-0.001,0.003c0,0.003-0.001,0.006-0.002,0.009
			c0,0.001,0,0.002,0,0.003c-0.001,0.003-0.002,0.005-0.002,0.008c0,0.001,0,0.001-0.001,0.002c0,0.004-0.001,0.007-0.002,0.01
			c0,0.001,0,0.002,0,0.002c-0.001,0.003-0.001,0.006-0.002,0.008c0,0.001,0,0.002,0,0.003c-0.002,0.007-0.003,0.013-0.005,0.02
			c0,0.001,0,0.002,0,0.002c-0.002,0.007-0.003,0.014-0.005,0.021c0,0,0,0.001,0,0.002c-0.001,0.003-0.002,0.006-0.002,0.009v0.001
			c-0.001,0.003-0.002,0.007-0.003,0.011l0,0c-0.001,0.004-0.001,0.007-0.002,0.011l0,0c-0.002,0.007-0.004,0.015-0.005,0.021l0,0
			c-0.038,0.171-0.079,0.341-0.123,0.509l-0.001,0.001c-0.001,0.007-0.003,0.014-0.005,0.021c0,0.001,0,0.001,0,0.001
			c-0.002,0.007-0.004,0.014-0.006,0.021c0,0.001,0,0.001,0,0.001c-0.001,0.004-0.002,0.007-0.003,0.01c0,0.001,0,0.001,0,0.001
			c-0.001,0.003-0.002,0.007-0.003,0.011l0,0c-0.001,0.004-0.002,0.007-0.003,0.01c0,0.001,0,0.001,0,0.001
			c-0.001,0.004-0.002,0.007-0.003,0.011l0,0c-0.001,0.003-0.002,0.007-0.003,0.01c0,0.001,0,0.001,0,0.002
			c-0.001,0.003-0.002,0.006-0.003,0.009v0.001c-0.001,0.003-0.002,0.007-0.003,0.01c0,0.001,0,0.002,0,0.003
			c-0.001,0.002-0.002,0.004-0.002,0.007c-0.001,0.001-0.001,0.002-0.001,0.003c-0.001,0.003-0.002,0.006-0.003,0.009
			c0,0.001,0,0.002-0.001,0.004c0,0.002-0.001,0.004-0.001,0.006c-0.001,0.001-0.001,0.002-0.001,0.004
			c-0.001,0.002-0.002,0.005-0.002,0.007c-0.001,0.002-0.001,0.003-0.002,0.005c0,0.002-0.001,0.004-0.001,0.006
			c-0.001,0.001-0.001,0.003-0.002,0.005c0,0.001-0.001,0.003-0.001,0.004c-0.001,0.003-0.001,0.005-0.002,0.008
			c-0.001,0.001-0.001,0.003-0.001,0.004l0.963,0.268c0.19-0.685,0.333-1.392,0.424-2.1L30.285,17.489L30.285,17.489z
			 M31.229,13.352l-0.988,0.15c0.01,0.066,0.02,0.133,0.028,0.199c0,0,0,0,0,0c0.001,0.008,0.002,0.015,0.003,0.022c0,0,0,0,0,0.001
			c0.001,0.007,0.002,0.014,0.003,0.021c0,0.001,0.001,0.001,0.001,0.002c0,0.002,0,0.004,0.001,0.007l0,0
			c0,0.005,0.001,0.009,0.002,0.014c0,0,0,0.001,0,0.001c0,0.002,0,0.005,0.001,0.007c0,0,0,0.001,0,0.002
			c0,0.004,0.001,0.008,0.002,0.013c0,0,0,0.001,0,0.001c0,0.002,0,0.004,0.001,0.006c0,0.001,0,0.002,0,0.003
			c0.001,0.006,0.002,0.013,0.003,0.02c0,0.001,0,0.001,0,0.002c0.001,0.007,0.002,0.014,0.003,0.021c0,0.001,0,0.001,0,0.002
			c0,0.002,0.001,0.004,0.001,0.006c0,0,0,0,0,0.001c0,0.004,0.001,0.009,0.002,0.013c0,0.001,0,0.002,0,0.003
			c0,0.002,0,0.004,0.001,0.006c0,0,0,0.001,0,0.002c0.001,0.004,0.001,0.008,0.002,0.012c0,0.001,0,0.001,0,0.002
			c0,0.002,0,0.004,0.001,0.006c0,0.001,0,0.002,0,0.003c0,0.004,0.001,0.009,0.002,0.013v0c0,0.002,0,0.004,0,0.006
			c0.001,0.001,0.001,0.002,0.001,0.003c0.001,0.006,0.001,0.013,0.002,0.02c0,0.001,0,0.001,0.001,0.002c0,0.002,0,0.004,0,0.006
			c0,0.001,0.001,0.002,0.001,0.002c0,0.004,0,0.007,0.001,0.011c0,0.001,0,0.002,0,0.003c0.001,0.002,0.001,0.004,0.001,0.006
			c0,0.001,0,0.002,0,0.003c0.001,0.003,0.001,0.007,0.002,0.01c0,0.001,0,0.002,0,0.003c0,0.002,0.001,0.004,0.001,0.006
			c0,0.001,0,0.002,0,0.003c0.001,0.004,0.001,0.008,0.002,0.012c0,0,0,0.001,0,0.001c0,0.002,0,0.004,0,0.006
			c0.001,0.001,0.001,0.002,0.001,0.003c0.001,0.007,0.001,0.013,0.002,0.02c0,0.001,0,0.002,0,0.003
			c0.001,0.002,0.001,0.004,0.001,0.006c0,0.001,0,0.002,0,0.003c0.001,0.003,0.001,0.007,0.002,0.011c0,0.001,0,0.002,0,0.003
			c0,0.002,0,0.004,0.001,0.006c0,0.001,0,0.002,0,0.003c0,0.004,0.001,0.007,0.001,0.011c0,0.001,0,0.002,0.001,0.002
			c0,0.002,0,0.004,0,0.006c0,0.001,0,0.002,0.001,0.003c0,0.007,0.001,0.013,0.002,0.02c0,0.001,0,0.002,0,0.003
			c0.001,0.007,0.001,0.013,0.002,0.02c0,0.001,0,0.002,0,0.003c0.001,0.002,0.001,0.004,0.001,0.006c0,0,0,0.001,0,0.001
			c0.001,0.004,0.001,0.009,0.002,0.013c0,0,0,0.001,0,0.002c0,0.002,0,0.004,0.001,0.006c0,0.001,0,0.002,0,0.002
			c0,0.005,0.001,0.009,0.001,0.014v0c0.001,0.002,0.001,0.004,0.001,0.007c0,0,0,0.001,0,0.001
			c0.001,0.007,0.002,0.014,0.002,0.021c0,0,0,0.001,0.001,0.002c0,0.007,0.001,0.014,0.002,0.021c0,0.001,0,0.001,0,0.002
			c0,0.002,0,0.004,0.001,0.007c0,0,0,0,0,0c0,0.005,0.001,0.01,0.001,0.015c0,0,0,0,0,0.001c0,0.002,0.001,0.005,0.001,0.007v0
			c0.001,0.007,0.001,0.015,0.002,0.022c0,0,0,0,0,0.001c0.001,0.007,0.002,0.015,0.002,0.022v0
			c0.001,0.008,0.002,0.015,0.002,0.023l0,0c0.034,0.378,0.054,0.759,0.058,1.144l1-0.011
			C31.392,14.765,31.334,14.048,31.229,13.352L31.229,13.352z M29.996,9.268l-0.909,0.417c0.015,0.031,0.029,0.062,0.043,0.094
			c0,0,0.001,0.001,0.001,0.001c0.001,0.003,0.003,0.006,0.004,0.01c0.001,0,0.001,0.001,0.001,0.002
			c0.002,0.003,0.003,0.006,0.004,0.009c0.001,0,0.001,0.001,0.002,0.002c0.001,0.003,0.002,0.006,0.004,0.009
			c0,0.001,0.001,0.002,0.001,0.003c0.001,0.003,0.003,0.006,0.004,0.009c0.001,0.002,0.002,0.004,0.003,0.007
			c0.001,0.002,0.002,0.004,0.003,0.006c0.001,0.002,0.002,0.004,0.003,0.007c0.001,0.001,0.001,0.002,0.002,0.003
			c0.001,0.003,0.002,0.005,0.003,0.008c0.001,0.001,0.001,0.002,0.002,0.003c0.001,0.003,0.002,0.005,0.003,0.008
			c0.001,0,0.001,0.001,0.001,0.002c0.002,0.003,0.003,0.006,0.004,0.009c0.001,0,0.001,0,0.001,0
			c0.021,0.048,0.042,0.096,0.062,0.144c0.001,0,0.001,0,0.001,0.001c0.001,0.003,0.003,0.006,0.004,0.009c0,0,0,0.001,0.001,0.001
			c0.001,0.003,0.002,0.006,0.004,0.009c0,0.001,0,0.002,0.001,0.003c0.001,0.002,0.002,0.005,0.003,0.008
			c0.002,0.004,0.003,0.007,0.005,0.011l0,0c0.001,0.003,0.003,0.006,0.004,0.01c0,0,0.001,0,0.001,0.001
			c0.001,0.003,0.002,0.006,0.004,0.009c0,0,0,0.001,0,0.001c0.002,0.003,0.003,0.006,0.004,0.009c0.001,0,0.001,0,0.001,0.001
			c0.001,0.003,0.003,0.006,0.004,0.009c0,0,0,0.001,0.001,0.001c0.002,0.006,0.005,0.013,0.008,0.02v0
			c0.002,0.003,0.003,0.007,0.005,0.01c0,0,0,0,0,0.001c0.001,0.003,0.003,0.006,0.004,0.009c0,0,0,0.001,0.001,0.001
			c0.001,0.003,0.002,0.006,0.004,0.009c0,0,0,0,0,0.001c0.001,0.003,0.003,0.006,0.004,0.01v0c0.003,0.007,0.006,0.013,0.009,0.02
			c0,0,0,0,0,0.001c0.002,0.003,0.003,0.006,0.005,0.009c0,0,0,0.001,0,0.001c0.001,0.003,0.003,0.006,0.004,0.01c0,0,0,0,0,0.001
			c0.002,0.003,0.003,0.006,0.005,0.01v0c0.001,0.003,0.003,0.007,0.004,0.01v0c0.002,0.003,0.003,0.006,0.004,0.01c0,0,0,0,0.001,0
			c0.001,0.003,0.002,0.006,0.004,0.01c0,0,0,0,0,0.001c0.001,0.003,0.003,0.006,0.004,0.009c0,0,0,0.001,0.001,0.001
			c0.001,0.003,0.002,0.006,0.004,0.009c0,0,0,0.001,0,0.001c0.001,0.003,0.003,0.006,0.004,0.009c0,0,0,0,0,0.001
			c0.002,0.003,0.003,0.006,0.004,0.009c0,0,0,0.001,0.001,0.001c0.001,0.003,0.002,0.006,0.003,0.009
			c0.001,0,0.001,0.001,0.001,0.002c0.001,0.002,0.003,0.005,0.004,0.008c0,0.001,0,0.001,0.001,0.002
			c0.001,0.003,0.002,0.005,0.003,0.008c0.001,0.001,0.001,0.001,0.001,0.002c0.001,0.002,0.002,0.005,0.004,0.008
			c0,0,0,0.001,0.001,0.002c0.001,0.003,0.002,0.005,0.003,0.008c0,0,0,0.001,0.001,0.002c0.001,0.002,0.002,0.005,0.003,0.008
			c0,0.001,0.001,0.001,0.001,0.002c0.001,0.003,0.002,0.005,0.003,0.008c0.001,0.001,0.001,0.001,0.001,0.002
			c0.002,0.003,0.003,0.005,0.004,0.008c0,0.001,0.001,0.002,0.001,0.003c0.001,0.002,0.002,0.005,0.003,0.007
			c0.001,0.001,0.001,0.002,0.001,0.003c0.001,0.002,0.002,0.004,0.003,0.006s0.001,0.003,0.002,0.005
			c0.001,0.002,0.001,0.004,0.002,0.005c0.001,0.002,0.001,0.003,0.002,0.005c0.001,0.002,0.002,0.004,0.002,0.006
			c0.001,0.001,0.002,0.002,0.002,0.004c0.001,0.002,0.002,0.005,0.003,0.007c0,0.001,0.001,0.002,0.001,0.003
			c0.001,0.002,0.002,0.005,0.003,0.007c0.001,0.001,0.001,0.003,0.002,0.004s0.001,0.003,0.002,0.005
			c0.001,0.002,0.002,0.004,0.002,0.006c0.001,0.001,0.002,0.003,0.002,0.004c0.001,0.002,0.002,0.005,0.003,0.007
			c0,0.001,0.001,0.002,0.001,0.004c0.001,0.002,0.002,0.005,0.003,0.007c0.001,0.001,0.001,0.003,0.002,0.004
			c0.001,0.003,0.002,0.007,0.004,0.01c0,0,0,0.001,0,0.001c0.001,0.002,0.002,0.004,0.002,0.005
			c0.001,0.001,0.001,0.002,0.001,0.002c0.001,0.003,0.003,0.006,0.004,0.009c0,0.001,0,0.001,0.001,0.002
			c0.001,0.003,0.002,0.006,0.003,0.009c0.001,0.001,0.001,0.001,0.001,0.002c0.001,0.003,0.003,0.007,0.004,0.01c0,0,0,0,0,0.001
			c0.132,0.337,0.249,0.678,0.354,1.021l0.957-0.29c-0.162-0.536-0.358-1.072-0.582-1.593C30.116,9.535,30.057,9.4,29.996,9.268
			L29.996,9.268z M27.721,5.667l-0.763,0.646c0.294,0.348,0.571,0.71,0.833,1.088c0,0,0,0,0.001,0
			c0.006,0.009,0.012,0.017,0.018,0.025c0,0,0,0,0,0c0.004,0.006,0.009,0.013,0.013,0.019l0,0c0.002,0.002,0.003,0.004,0.005,0.006
			v0c0.004,0.006,0.009,0.013,0.013,0.019c0,0,0,0,0.001,0.001c0.004,0.006,0.008,0.012,0.012,0.018
			c0.001,0,0.001,0.001,0.001,0.001c0.001,0.002,0.003,0.004,0.004,0.006c0,0,0.001,0.001,0.001,0.001
			c0.004,0.006,0.008,0.012,0.012,0.018c0.001,0,0.001,0.001,0.001,0.001c0.002,0.002,0.003,0.004,0.004,0.006
			c0.001,0,0.001,0,0.001,0.001c0.004,0.006,0.008,0.012,0.013,0.018c0,0,0,0.001,0,0.001c0.005,0.006,0.009,0.012,0.013,0.018
			c0,0,0,0,0.001,0.001c0.001,0.002,0.002,0.004,0.004,0.005c0,0,0,0.001,0.001,0.001c0.004,0.006,0.008,0.012,0.012,0.018
			c0,0,0,0.001,0.001,0.001c0.001,0.002,0.002,0.004,0.004,0.006c0,0,0,0,0,0.001c0.003,0.004,0.006,0.007,0.008,0.011
			c0,0,0.001,0.001,0.001,0.001c0.001,0.002,0.002,0.003,0.003,0.005c0.001,0,0.001,0.001,0.002,0.002
			c0.001,0.002,0.002,0.004,0.004,0.005c0,0,0,0.001,0,0.001c0.003,0.003,0.005,0.007,0.007,0.01
			c0.001,0.001,0.001,0.001,0.002,0.002c0.001,0.002,0.002,0.003,0.003,0.005c0.001,0.001,0.001,0.001,0.002,0.002
			c0.004,0.005,0.007,0.011,0.011,0.017c0.001,0,0.001,0.001,0.002,0.002c0.001,0.002,0.002,0.003,0.003,0.005
			c0.001,0.001,0.001,0.002,0.002,0.003c0.002,0.003,0.004,0.006,0.006,0.009c0.001,0.001,0.001,0.001,0.002,0.002
			c0.001,0.001,0.002,0.003,0.003,0.005c0.001,0.001,0.001,0.002,0.002,0.003c0.001,0.001,0.002,0.003,0.003,0.005
			c0.001,0.001,0.001,0.002,0.002,0.003c0.002,0.002,0.004,0.005,0.005,0.008c0.001,0.001,0.002,0.002,0.003,0.003
			C27.999,7.71,28,7.711,28.001,7.713c0,0.001,0.001,0.002,0.002,0.004c0.001,0.001,0.002,0.002,0.003,0.004
			s0.002,0.003,0.003,0.004c0.001,0.002,0.003,0.005,0.005,0.007c0,0.001,0.001,0.002,0.002,0.003s0.002,0.003,0.003,0.004
			c0,0.001,0.001,0.002,0.002,0.003c0.002,0.002,0.003,0.005,0.005,0.007c0.001,0.001,0.001,0.003,0.002,0.004
			s0.002,0.002,0.003,0.004s0.002,0.003,0.003,0.004c0.001,0.001,0.001,0.003,0.002,0.004c0.001,0.002,0.003,0.003,0.004,0.005
			c0.001,0.001,0.002,0.003,0.003,0.005c0.001,0.002,0.002,0.003,0.003,0.005s0.002,0.002,0.003,0.004s0.002,0.003,0.003,0.004
			c0,0.001,0.001,0.002,0.002,0.003c0.002,0.002,0.003,0.005,0.005,0.007c0,0.001,0.001,0.002,0.002,0.003
			c0.001,0.001,0.002,0.003,0.003,0.005c0.001,0.001,0.002,0.002,0.002,0.003c0.002,0.001,0.003,0.003,0.004,0.005
			c0.001,0.001,0.001,0.001,0.002,0.002c0.001,0.002,0.003,0.005,0.005,0.008c0,0.001,0.001,0.002,0.002,0.003
			c0.001,0.001,0.002,0.003,0.003,0.005s0.001,0.002,0.002,0.003c0.002,0.002,0.003,0.005,0.005,0.007
			c0,0.001,0.001,0.001,0.001,0.002c0.002,0.002,0.003,0.004,0.004,0.006c0.001,0.001,0.002,0.002,0.002,0.003
			c0.002,0.001,0.003,0.003,0.004,0.005c0,0.001,0.001,0.002,0.002,0.003c0.001,0.003,0.003,0.005,0.005,0.008
			c0,0.001,0.001,0.001,0.001,0.002c0.002,0.002,0.003,0.004,0.004,0.006c0.001,0.001,0.001,0.002,0.002,0.003
			c0.001,0.002,0.003,0.004,0.004,0.006c0,0,0.001,0.001,0.001,0.002c0.002,0.002,0.004,0.005,0.006,0.008
			c0,0.001,0,0.001,0.001,0.002c0.001,0.002,0.003,0.004,0.004,0.007c0,0,0.001,0.001,0.001,0.002
			c0.004,0.005,0.007,0.01,0.01,0.015l0.847-0.533C28.603,6.787,28.178,6.206,27.721,5.667L27.721,5.667z M24.521,2.838
			l-0.549,0.836l0,0c0.001,0.001,0.003,0.002,0.004,0.002c0.001,0.001,0.003,0.002,0.004,0.003s0.003,0.001,0.004,0.002
			c0.002,0.001,0.003,0.002,0.005,0.003c0.002,0.001,0.003,0.002,0.006,0.004c0.001,0.001,0.003,0.002,0.004,0.003
			C24,3.692,24.001,3.693,24.002,3.694c0.002,0.001,0.003,0.002,0.005,0.003c0.001,0.001,0.002,0.002,0.003,0.002
			c0.003,0.001,0.005,0.003,0.008,0.005c0.001,0,0.001,0.001,0.002,0.001c0.002,0.001,0.004,0.002,0.006,0.004
			c0.001,0,0.002,0.001,0.003,0.002c0.002,0.001,0.004,0.002,0.006,0.003c0.001,0.001,0.002,0.001,0.003,0.002
			c0.002,0.002,0.005,0.003,0.007,0.005c0.001,0.001,0.002,0.001,0.003,0.002c0.002,0.001,0.004,0.002,0.006,0.004
			c0.001,0,0.002,0.001,0.003,0.001c0.002,0.001,0.004,0.003,0.006,0.004c0.001,0,0.001,0.001,0.002,0.001
			c0.002,0.002,0.005,0.003,0.008,0.005c0,0,0.001,0.001,0.002,0.001c0.002,0.001,0.004,0.003,0.007,0.004
			c0,0,0.001,0.001,0.002,0.001c0.002,0.001,0.005,0.003,0.008,0.005c0,0,0,0,0.001,0c0.002,0.001,0.005,0.003,0.007,0.005
			c0.001,0,0.002,0.001,0.002,0.001c0.003,0.001,0.005,0.003,0.007,0.004c0.001,0,0.001,0,0.002,0.001
			c0.003,0.002,0.005,0.004,0.008,0.006c0.001,0,0.001,0,0.001,0c0.003,0.001,0.005,0.003,0.008,0.005c0,0,0.001,0,0.001,0.001
			c0.006,0.004,0.012,0.008,0.017,0.011c0.001,0,0.001,0,0.002,0.001c0.002,0.002,0.005,0.003,0.007,0.005
			c0.001,0,0.001,0,0.001,0.001c0.006,0.004,0.012,0.008,0.018,0.012c0,0,0,0,0.001,0c0.003,0.002,0.005,0.003,0.008,0.005v0
			c0.006,0.004,0.012,0.008,0.018,0.012l0.001,0c0.006,0.004,0.012,0.008,0.018,0.012v0c0.003,0.002,0.006,0.004,0.009,0.005
			c0,0,0,0,0,0c0.006,0.004,0.012,0.008,0.018,0.012l0,0c0.003,0.002,0.006,0.004,0.009,0.006c0,0,0,0,0,0
			c0.006,0.004,0.012,0.008,0.018,0.012c0,0,0,0,0.001,0c0.008,0.006,0.017,0.012,0.025,0.018l0,0
			c0.009,0.006,0.018,0.012,0.026,0.019h0.001c0.014,0.01,0.028,0.021,0.043,0.031c0.001,0,0,0,0.001,0
			c0.015,0.01,0.029,0.021,0.043,0.031l0,0c0.032,0.023,0.064,0.046,0.097,0.069l0,0c0.009,0.006,0.017,0.013,0.025,0.019l0,0
			c0.015,0.01,0.029,0.021,0.044,0.031c0,0,0,0,0,0c0.009,0.006,0.017,0.012,0.025,0.019c0,0,0,0,0.001,0
			c0.005,0.004,0.011,0.008,0.017,0.012c0,0,0,0,0,0c0.003,0.002,0.006,0.004,0.008,0.006c0.001,0,0.001,0,0.001,0
			c0.006,0.004,0.011,0.008,0.017,0.012c0,0,0.001,0,0.001,0.001c0.003,0.001,0.005,0.003,0.008,0.005c0,0,0,0,0,0
			c0.003,0.002,0.006,0.004,0.009,0.006l0,0c0.003,0.002,0.005,0.004,0.008,0.006c0,0,0.001,0,0.001,0.001
			c0.006,0.004,0.012,0.008,0.017,0.012l0.001,0c0.002,0.002,0.005,0.004,0.008,0.006v0c0.006,0.004,0.012,0.008,0.017,0.012
			c0.001,0,0.001,0,0.001,0.001c0.003,0.002,0.005,0.003,0.008,0.005c0,0,0,0,0.001,0.001c0.003,0.002,0.005,0.004,0.008,0.006l0,0
			c0.003,0.002,0.006,0.004,0.008,0.006c0.001,0,0.001,0.001,0.002,0.001c0.005,0.004,0.011,0.008,0.016,0.012
			c0,0,0.001,0,0.001,0.001c0.003,0.002,0.005,0.003,0.007,0.005c0.001,0,0.001,0,0.002,0.001c0.002,0.002,0.005,0.004,0.008,0.006
			l0,0c0.003,0.002,0.005,0.004,0.008,0.006c0.001,0,0.001,0,0.002,0.001c0.002,0.002,0.004,0.003,0.006,0.005
			c0.001,0,0.001,0.001,0.002,0.001c0.002,0.002,0.005,0.004,0.008,0.006v0c0.003,0.002,0.005,0.003,0.008,0.005
			c0,0,0.001,0.001,0.002,0.001c0.002,0.002,0.004,0.003,0.006,0.005c0.001,0,0.001,0.001,0.002,0.001
			c0.002,0.002,0.005,0.004,0.008,0.006c0,0,0.001,0.001,0.001,0.001c0.003,0.001,0.004,0.003,0.006,0.005
			c0.001,0,0.002,0.001,0.003,0.001c0.002,0.002,0.004,0.003,0.007,0.005c0,0,0,0,0.001,0c0.002,0.002,0.005,0.004,0.007,0.006
			c0.001,0,0.002,0.001,0.003,0.002c0.002,0.001,0.003,0.002,0.005,0.004c0.001,0,0.002,0.001,0.003,0.002
			c0.002,0.002,0.005,0.004,0.007,0.006c0.001,0,0.001,0,0.002,0.001c0.002,0.001,0.004,0.003,0.006,0.005
			c0.001,0,0.002,0.001,0.003,0.002c0.001,0.001,0.003,0.002,0.005,0.004c0.001,0.001,0.002,0.001,0.002,0.002
			c0.003,0.002,0.005,0.004,0.008,0.005c0.001,0.001,0.001,0.001,0.002,0.002c0.002,0.001,0.004,0.003,0.005,0.004
			s0.003,0.002,0.004,0.002c0.001,0.001,0.003,0.002,0.004,0.004c0.001,0,0.003,0.001,0.004,0.002
			c0.002,0.001,0.004,0.003,0.006,0.005c0.001,0.001,0.002,0.001,0.003,0.002c0.002,0.001,0.003,0.002,0.005,0.003
			c0.001,0.001,0.002,0.002,0.003,0.002c0.002,0.001,0.004,0.003,0.006,0.004c0.001,0.001,0.002,0.002,0.003,0.003
			c0.002,0.001,0.004,0.002,0.006,0.004c0.001,0.001,0.002,0.001,0.003,0.002c0.002,0.001,0.003,0.002,0.005,0.003
			c0.001,0.001,0.002,0.002,0.003,0.002c0.002,0.002,0.004,0.003,0.007,0.005c0.001,0.001,0.002,0.001,0.003,0.002
			s0.003,0.002,0.004,0.003s0.003,0.002,0.004,0.003s0.002,0.002,0.004,0.003c0.001,0.001,0.002,0.002,0.004,0.003
			c0.002,0.002,0.004,0.003,0.006,0.005c0.001,0.001,0.002,0.002,0.003,0.002c0.002,0.001,0.003,0.002,0.005,0.003
			c0.001,0.001,0.002,0.002,0.003,0.003c0.002,0.001,0.003,0.002,0.005,0.003C24.999,4.416,25,4.417,25.002,4.418
			c0.001,0.001,0.003,0.002,0.004,0.003c0.002,0.001,0.003,0.002,0.004,0.003s0.003,0.002,0.004,0.003s0.002,0.002,0.004,0.003
			c0.001,0.001,0.002,0.002,0.004,0.003c0.002,0.001,0.004,0.003,0.006,0.005c0.001,0.001,0.002,0.002,0.004,0.002
			c0.001,0.001,0.002,0.002,0.004,0.003c0.001,0.001,0.002,0.001,0.003,0.002c0.003,0.002,0.005,0.004,0.008,0.006
			c0.001,0.001,0.002,0.001,0.002,0.002c0.002,0.001,0.003,0.002,0.005,0.003c0.001,0,0.002,0.001,0.003,0.002
			s0.003,0.002,0.004,0.003c0.001,0,0.002,0.001,0.003,0.002c0.003,0.002,0.005,0.003,0.008,0.005
			c0.001,0.001,0.002,0.002,0.003,0.002c0.001,0.001,0.002,0.002,0.004,0.003c0.001,0.001,0.002,0.002,0.003,0.002
			c0.001,0.001,0.003,0.002,0.004,0.003s0.002,0.001,0.003,0.002c0.003,0.002,0.005,0.004,0.008,0.006
			c0.001,0,0.002,0.001,0.003,0.002s0.003,0.002,0.004,0.003S25.104,4.5,25.104,4.5c0.006,0.004,0.011,0.008,0.016,0.013
			c0.001,0,0.002,0.001,0.003,0.001c0.001,0.001,0.003,0.002,0.004,0.004c0.001,0,0.002,0.001,0.003,0.002
			c0.003,0.002,0.006,0.005,0.01,0.008v0c0.002,0.001,0.004,0.002,0.005,0.004c0.001,0,0.002,0.001,0.003,0.002
			c0.001,0.001,0.003,0.002,0.004,0.004c0.001,0,0.001,0,0.002,0.001c0.003,0.003,0.007,0.005,0.01,0.008
			c0,0,0.001,0.001,0.001,0.001c0.002,0.001,0.004,0.002,0.005,0.004c0.001,0,0.002,0.001,0.002,0.001
			c0.006,0.004,0.011,0.009,0.016,0.013c0.001,0,0.002,0.001,0.002,0.001c0.002,0.001,0.004,0.002,0.005,0.004
			c0.001,0,0.001,0.001,0.002,0.001c0.005,0.004,0.011,0.009,0.016,0.013c0.001,0,0.001,0.001,0.002,0.001
			c0.002,0.001,0.004,0.002,0.005,0.004c0,0,0.001,0,0.001,0c0.004,0.003,0.007,0.006,0.011,0.009c0,0,0,0.001,0.001,0.001
			c0.002,0.001,0.003,0.003,0.005,0.004c0.001,0,0.001,0,0.002,0.001c0.005,0.004,0.011,0.009,0.016,0.014
			c0.001,0,0.001,0,0.002,0.001c0.001,0.001,0.003,0.003,0.005,0.004c0,0,0.001,0.001,0.001,0.001
			c0.006,0.004,0.011,0.009,0.017,0.014c0,0,0.001,0.001,0.001,0.001c0.002,0.001,0.004,0.002,0.006,0.004c0,0,0,0,0,0.001
			c0.006,0.004,0.012,0.009,0.017,0.014c0.001,0,0.001,0.001,0.002,0.001c0.005,0.005,0.011,0.009,0.016,0.014
			c0.001,0,0.001,0,0.002,0.001c0.001,0.001,0.003,0.002,0.005,0.004c0,0,0.001,0.001,0.002,0.002
			c0.005,0.004,0.01,0.009,0.016,0.013c0,0,0.001,0,0.001,0.001c0.002,0.001,0.004,0.003,0.005,0.004
			c0.001,0,0.001,0.001,0.002,0.001c0.004,0.003,0.007,0.005,0.011,0.009l0,0c0.002,0.001,0.003,0.003,0.005,0.004
			c0.001,0,0.001,0.001,0.002,0.001c0.002,0.001,0.003,0.003,0.005,0.004c0,0,0.001,0.001,0.001,0.001
			c0.003,0.002,0.007,0.005,0.01,0.008c0.001,0,0.001,0,0.001,0.001c0.002,0.001,0.004,0.003,0.005,0.004
			c0.001,0,0.002,0.001,0.002,0.001c0.005,0.004,0.011,0.009,0.016,0.013c0.001,0,0.001,0.001,0.002,0.001
			c0.002,0.001,0.003,0.002,0.005,0.004c0,0,0.001,0.001,0.002,0.001c0.005,0.005,0.01,0.009,0.016,0.014
			c0,0,0.001,0.001,0.001,0.001c0.002,0.001,0.004,0.003,0.005,0.005h0.001c0.003,0.003,0.007,0.006,0.01,0.009
			c0.001,0,0.001,0,0.002,0.001c0.001,0.001,0.003,0.002,0.005,0.004c0,0.001,0.001,0.001,0.002,0.002
			c0.001,0.001,0.003,0.003,0.004,0.004c0.001,0,0.001,0.001,0.002,0.001c0.003,0.003,0.006,0.005,0.009,0.008
			c0.001,0.001,0.001,0.001,0.002,0.002c0.002,0.001,0.003,0.003,0.005,0.004c0.001,0.001,0.001,0.001,0.002,0.002
			c0.003,0.002,0.006,0.005,0.009,0.008c0.001,0,0.001,0.001,0.002,0.001c0.001,0.001,0.003,0.002,0.004,0.003
			s0.002,0.001,0.003,0.002s0.003,0.002,0.004,0.003s0.002,0.002,0.003,0.002c0.002,0.002,0.005,0.004,0.007,0.006
			c0.001,0.001,0.002,0.001,0.003,0.002c0.001,0.001,0.003,0.002,0.004,0.003s0.002,0.002,0.003,0.003
			c0.002,0.001,0.003,0.002,0.004,0.003c0.002,0.001,0.003,0.002,0.004,0.003c0.002,0.001,0.004,0.003,0.006,0.005
			c0.001,0.001,0.002,0.002,0.004,0.003c0.001,0.001,0.002,0.002,0.003,0.003c0.001,0.001,0.003,0.002,0.004,0.003
			s0.002,0.002,0.003,0.003c0.002,0.002,0.005,0.004,0.007,0.005c0.001,0.001,0.002,0.002,0.003,0.003
			c0.001,0,0.001,0.001,0.002,0.002l0.662-0.75C25.691,3.668,25.119,3.231,24.521,2.838L24.521,2.838z M20.688,0.992l-0.31,0.951
			c0.357,0.116,0.712,0.248,1.062,0.394c0.001,0,0.001,0,0.002,0c0.002,0.001,0.005,0.002,0.008,0.003c0.001,0,0.001,0,0.001,0
			c0.003,0.001,0.006,0.002,0.009,0.004c0,0,0.001,0,0.001,0c0.003,0.001,0.006,0.002,0.009,0.003l0,0
			c0.004,0.001,0.007,0.002,0.01,0.004l0,0c0.012,0.005,0.023,0.01,0.035,0.015c0.001,0,0.002,0.001,0.003,0.001
			c0.002,0.001,0.004,0.002,0.006,0.003c0.001,0,0.003,0,0.004,0.001c0.002,0.001,0.004,0.002,0.006,0.003
			c0.001,0,0.003,0.001,0.004,0.001c0.002,0.001,0.004,0.001,0.006,0.002c0.001,0,0.003,0.001,0.004,0.002
			c0.002,0,0.004,0.001,0.006,0.002c0.001,0,0.003,0.001,0.004,0.002c0.002,0,0.004,0.001,0.006,0.002
			c0.001,0.001,0.003,0.001,0.005,0.002c0.001,0.001,0.003,0.001,0.005,0.002c0.002,0,0.004,0.001,0.005,0.002
			c0.002,0,0.003,0.001,0.005,0.001c0.003,0.001,0.007,0.003,0.01,0.004c0.097,0.042,0.193,0.084,0.289,0.127l0,0
			c0.007,0.003,0.014,0.006,0.021,0.009l0,0c0.007,0.003,0.014,0.006,0.021,0.009l0,0c0.004,0.001,0.007,0.003,0.011,0.005l0,0
			c0.003,0.001,0.006,0.003,0.01,0.004l0,0c0.034,0.016,0.068,0.031,0.102,0.047c0.001,0,0.002,0.001,0.003,0.001
			c0.002,0.001,0.005,0.002,0.007,0.003c0.001,0,0.002,0.001,0.003,0.001c0.003,0.001,0.005,0.002,0.008,0.004
			c0.001,0,0.002,0.001,0.003,0.001c0.002,0.001,0.005,0.002,0.007,0.003c0.001,0,0.002,0.001,0.003,0.001
			c0.003,0.001,0.005,0.002,0.007,0.003c0.001,0,0.003,0.001,0.004,0.001c0.002,0.001,0.004,0.002,0.007,0.003
			c0.001,0.001,0.002,0.001,0.003,0.002c0.002,0.001,0.005,0.002,0.007,0.003c0.001,0,0.002,0.001,0.003,0.001
			c0.003,0.001,0.005,0.002,0.007,0.003c0.001,0,0.002,0.001,0.003,0.001c0.003,0.001,0.005,0.002,0.007,0.003
			c0.002,0,0.003,0.001,0.004,0.001c0.002,0.001,0.005,0.002,0.007,0.003c0.001,0,0.002,0.001,0.003,0.001
			c0.002,0.001,0.005,0.002,0.007,0.003c0.001,0,0.002,0.001,0.003,0.001c0.002,0.001,0.005,0.002,0.008,0.003
			c0,0,0.001,0,0.002,0.001c0.002,0.001,0.005,0.002,0.008,0.004c0.001,0,0.001,0,0.002,0.001c0.003,0.001,0.006,0.002,0.009,0.004
			c0,0,0,0,0.001,0c0.003,0.001,0.006,0.003,0.009,0.004l0.001,0c0.003,0.001,0.006,0.003,0.01,0.004l0,0
			c0.012,0.006,0.023,0.011,0.035,0.017l0.434-0.901c-0.223-0.107-0.448-0.21-0.679-0.309C21.561,1.298,21.123,1.134,20.688,0.992
			L20.688,0.992z M16.48,0.264l-0.03,1c0.241,0.007,0.48,0.021,0.717,0.04h0.001c0.007,0,0.015,0.001,0.021,0.002h0.001
			c0.007,0,0.015,0.001,0.021,0.001h0.001c0.003,0,0.007,0.001,0.01,0.001c0.001,0,0.001,0,0.001,0
			c0.008,0.001,0.015,0.001,0.021,0.002c0.001,0,0.001,0,0.002,0c0.007,0,0.014,0.001,0.021,0.002c0.001,0,0.001,0,0.002,0
			c0.003,0,0.006,0,0.009,0.001c0.001,0,0.001,0,0.002,0c0.003,0,0.007,0,0.01,0.001c0.001,0,0.002,0,0.002,0
			c0.003,0,0.006,0,0.009,0.001c0.001,0,0.001,0,0.002,0c0.003,0,0.007,0.001,0.01,0.001c0.001,0,0.002,0,0.002,0
			c0.003,0,0.006,0,0.009,0c0.001,0,0.002,0,0.002,0c0.004,0,0.007,0,0.01,0c0.001,0,0.002,0,0.002,0c0.003,0,0.006,0,0.009,0
			c0.001,0,0.002,0,0.003,0c0.003,0,0.005,0,0.008,0c0.001,0,0.001,0,0.002,0c0.003,0,0.007,0,0.01,0.001c0.001,0,0.002,0,0.003,0
			c0.003,0,0.005,0,0.007,0.001c0.001,0,0.002,0,0.004,0c0.003,0,0.006,0,0.009,0.001c0.001,0,0.002,0,0.003,0
			c0.003,0,0.005,0,0.007,0c0.001,0,0.003,0,0.004,0c0.003,0,0.006,0,0.009,0c0.001,0,0.002,0,0.004,0c0.002,0,0.004,0,0.006,0
			c0.001,0,0.003,0,0.004,0c0.003,0,0.005,0,0.007,0.001c0.002,0,0.004,0,0.006,0c0.002,0,0.004,0,0.006,0s0.003,0,0.005,0
			s0.004,0,0.006,0c0.001,0,0.002,0,0.004,0c0.003,0,0.006,0,0.008,0.001c0.002,0,0.004,0,0.005,0c0.002,0,0.004,0,0.005,0
			c0.002,0,0.004,0,0.005,0c0.003,0,0.006,0,0.009,0c0.001,0,0.003,0,0.005,0c0.001,0,0.003,0,0.005,0c0.001,0,0.003,0,0.005,0.001
			c0.002,0,0.004,0,0.006,0c0.002,0,0.005,0,0.007,0c0.002,0,0.003,0,0.005,0c0.001,0,0.003,0,0.005,0c0.002,0,0.003,0,0.004,0
			c0.004,0,0.007,0.001,0.01,0.001c0.001,0,0.003,0,0.004,0c0.002,0,0.003,0,0.005,0c0.002,0,0.003,0,0.005,0
			c0.002,0,0.005,0.001,0.008,0.001c0.002,0,0.004,0,0.005,0c0.002,0,0.004,0,0.006,0c0.001,0,0.003,0,0.004,0
			c0.002,0,0.004,0,0.006,0.001c0.001,0,0.002,0,0.004,0c0.003,0,0.006,0,0.009,0.001c0.002,0,0.003,0,0.004,0
			c0.002,0,0.004,0,0.006,0.001c0.001,0,0.002,0,0.003,0c0.004,0,0.007,0,0.011,0.001c0.001,0,0.002,0,0.003,0
			c0.002,0,0.004,0,0.007,0c0.001,0,0.002,0,0.003,0c0.003,0,0.007,0.001,0.011,0.001c0.001,0,0.002,0,0.003,0
			c0.002,0,0.004,0,0.006,0c0.001,0,0.002,0,0.003,0c0.007,0.001,0.013,0.001,0.02,0.002c0.001,0,0.002,0,0.004,0
			c0.002,0,0.004,0,0.006,0c0.001,0,0.002,0,0.003,0c0.003,0,0.007,0,0.01,0.001c0.001,0,0.003,0,0.004,0c0.002,0,0.004,0,0.006,0
			c0.001,0,0.002,0,0.003,0c0.004,0,0.007,0.001,0.011,0.001c0.001,0,0.002,0,0.003,0c0.002,0,0.004,0,0.006,0
			c0.001,0,0.003,0,0.004,0c0.004,0,0.007,0.001,0.011,0.001c0.001,0,0.002,0,0.002,0c0.003,0,0.005,0,0.007,0.001
			c0.001,0,0.002,0,0.003,0c0.007,0.001,0.013,0.002,0.02,0.002c0.001,0,0.002,0,0.003,0c0.002,0,0.004,0,0.007,0.001
			c0,0,0.001,0,0.002,0c0.004,0,0.008,0.001,0.012,0.001c0.001,0,0.002,0,0.002,0c0.002,0,0.005,0,0.007,0.001
			c0.001,0,0.002,0,0.003,0c0.003,0,0.007,0.001,0.01,0.001c0.002,0,0.003,0,0.004,0c0.002,0,0.004,0,0.006,0
			c0.001,0,0.002,0,0.003,0c0.005,0,0.009,0.001,0.013,0.002c0.001,0,0.001,0,0.001,0c0.002,0,0.004,0,0.006,0
			c0.001,0,0.003,0,0.004,0c0.002,0,0.004,0,0.006,0.001c0.001,0,0.002,0,0.004,0c0.003,0,0.006,0.001,0.009,0.001
			c0.002,0,0.003,0,0.004,0c0.002,0,0.004,0,0.006,0.001c0.001,0,0.003,0,0.004,0c0.003,0,0.006,0.001,0.009,0.001
			c0.002,0,0.003,0,0.004,0.001c0.002,0,0.004,0,0.006,0c0.001,0,0.003,0,0.004,0c0.003,0,0.006,0.001,0.009,0.001
			c0.001,0,0.003,0,0.005,0.001c0.001,0,0.003,0,0.005,0c0.001,0,0.003,0,0.005,0c0.001,0,0.003,0,0.005,0.001
			c0.003,0,0.005,0,0.008,0.001c0.002,0,0.003,0,0.005,0c0.001,0,0.003,0,0.005,0.001c0.001,0,0.003,0,0.005,0
			c0.002,0,0.004,0,0.007,0.001c0.002,0,0.004,0,0.005,0.001c0.002,0,0.004,0,0.006,0c0.002,0,0.003,0,0.005,0
			c0.002,0,0.004,0.001,0.006,0.001c0.002,0,0.004,0,0.006,0.001c0.002,0,0.004,0,0.006,0.001c0.002,0,0.003,0,0.005,0
			c0.002,0,0.004,0,0.006,0.001c0.001,0,0.002,0,0.003,0c0.003,0,0.006,0,0.009,0.001c0.002,0,0.003,0,0.005,0
			c0.002,0,0.004,0.001,0.006,0.001c0.001,0,0.002,0,0.003,0c0.004,0,0.007,0.001,0.01,0.001c0.001,0,0.002,0,0.003,0
			c0.002,0,0.004,0,0.007,0.001c0.001,0,0.002,0,0.004,0c0.003,0,0.006,0.001,0.009,0.001c0,0,0.001,0,0.002,0
			c0.003,0,0.005,0.001,0.008,0.001c0.001,0,0.002,0,0.003,0c0.003,0,0.006,0.001,0.008,0.001c0.001,0,0.002,0,0.002,0
			c0.004,0,0.007,0.001,0.01,0.001c0.001,0,0.002,0,0.003,0c0.003,0,0.005,0.001,0.008,0.001c0.001,0,0.001,0,0.002,0
			c0.004,0,0.007,0.001,0.01,0.001c0.001,0,0.002,0,0.002,0c0.003,0,0.006,0,0.009,0.001c0.001,0,0.001,0,0.002,0
			c0.003,0,0.007,0.001,0.01,0.001c0.001,0,0.001,0,0.001,0c0.003,0,0.007,0.001,0.01,0.001c0,0,0.001,0,0.002,0
			c0.007,0.001,0.014,0.002,0.021,0.003l0.001,0c0.008,0.001,0.015,0.002,0.021,0.003c0,0,0,0,0.001,0
			c0.003,0.001,0.007,0.001,0.01,0.002c0,0,0,0,0.001,0c0.007,0.001,0.014,0.002,0.021,0.003l0,0
			c0.067,0.011,0.135,0.021,0.202,0.033l0.17-0.985C17.913,0.357,17.197,0.285,16.48,0.264L16.48,0.264z"/>
	</g>
</g>
<g id="Layer_2">
	<g>
		<path d="M16,4.362c0.661,0,1.227,0.234,1.696,0.704C18.166,5.535,18.4,6.1,18.4,6.762c0,0.661-0.234,1.229-0.705,1.704
			C17.227,8.94,16.66,9.178,16,9.178c-0.661,0-1.227-0.237-1.696-0.712C13.834,7.991,13.6,7.423,13.6,6.762
			c0-0.662,0.234-1.227,0.704-1.696C14.773,4.596,15.338,4.362,16,4.362z"/>
	</g>
	<g>
		<path d="M5.439,11.978c0-0.309,0.88-0.565,2.64-0.768c1.76-0.203,3.52-0.331,5.28-0.384L16,10.762
			c7.04,0.117,10.561,0.522,10.561,1.216c0,0.31-0.598,0.651-1.793,1.024c-1.195,0.374-2.389,0.672-3.584,0.896l-1.775,0.32
			l0.943,4.896c0.971,5.494,1.221,8.33,0.752,8.512c-0.182,0.074-0.482-0.16-0.904-0.703c-0.42-0.545-0.863-1.23-1.328-2.057
			c-0.463-0.826-0.914-1.658-1.352-2.496s-0.799-1.555-1.088-2.152L16,19.322l-1.536,3.088c-1.888,3.646-3.072,5.387-3.552,5.215
			c-0.182-0.148-0.251-0.664-0.208-1.543c0.042-0.881,0.165-1.996,0.368-3.344c0.203-1.35,0.419-2.654,0.648-3.912
			c0.229-1.26,0.435-2.341,0.616-3.249l0.272-1.36C7.829,13.417,5.439,12.671,5.439,11.978z"/>
	</g>
</g>
</svg>
